<svg width="52" height="39" viewBox="0 0 52 39" fill="none" xmlns="http://www.w3.org/2000/svg">
<path d="M13.0105 13.0105C17.233 13.0105 21.4555 13.0105 25.806 13.0105C25.806 17.233 25.806 21.4555 25.806 25.8059C21.5835 25.8059 17.361 25.8059 13.0105 25.8059C13.0105 21.5834 13.0105 17.3609 13.0105 13.0105Z" fill="white"/>
<path d="M26.021 13.0105C30.2435 13.0105 34.466 13.0105 38.8164 13.0105C38.8164 17.233 38.8164 21.4555 38.8164 25.8059C34.5939 25.8059 30.3714 25.8059 26.021 25.8059C26.021 21.5834 26.021 17.3609 26.021 13.0105ZM31.0746 17.204C30.9793 17.2616 30.8839 17.3193 30.7857 17.3787C30.2426 17.9364 29.931 18.6611 29.8843 19.4376C29.913 20.3476 30.2148 21.0046 30.8798 21.6326C31.4583 22.1036 32.1416 22.3206 32.8904 22.2891C33.5389 22.1992 34.113 22.03 34.623 21.6125C34.4819 21.1892 34.3091 20.9429 33.9778 20.6448C33.9135 20.698 33.8492 20.7512 33.7829 20.806C33.2781 21.0436 32.8065 21.0285 32.2574 20.9673C31.8499 20.7975 31.6302 20.5874 31.3972 20.2147C31.2199 19.6826 31.2471 19.2671 31.4241 18.7362C31.6738 18.2724 31.8726 18.1208 32.3649 17.9566C32.9383 17.9134 33.2624 18.0063 33.7628 18.2792C34.0805 18.3162 34.0805 18.3162 34.2344 18.1381C34.2806 18.0782 34.3268 18.0183 34.3743 17.9566C34.4564 17.8502 34.5384 17.7437 34.623 17.6341C34.4471 17.2257 34.2463 17.0455 33.8354 16.8562C32.9034 16.5895 31.8734 16.6343 31.0746 17.204Z" fill="white"/>
<path d="M39.0315 13.0105C43.254 13.0105 47.4765 13.0105 51.8269 13.0105C51.8269 17.233 51.8269 21.4555 51.8269 25.8059C47.6044 25.8059 43.3819 25.8059 39.0315 25.8059C39.0315 21.5834 39.0315 17.3609 39.0315 13.0105ZM43.5475 16.8814C43.5475 18.6201 43.5475 20.3587 43.5475 22.1501C44.7894 22.1501 46.0314 22.1501 47.3109 22.1501C47.3109 21.8308 47.3109 21.5114 47.3109 21.1824C46.4593 21.1824 45.6077 21.1824 44.7303 21.1824C44.7303 20.7566 44.7303 20.3308 44.7303 19.8921C45.44 19.8921 46.1496 19.8921 46.8808 19.8921C46.8808 19.5727 46.8808 19.2534 46.8808 18.9244C46.1711 18.9244 45.4615 18.9244 44.7303 18.9244C44.7303 18.5695 44.7303 18.2147 44.7303 17.8491C45.5464 17.8491 46.3625 17.8491 47.2034 17.8491C47.2034 17.5298 47.2034 17.2104 47.2034 16.8814C45.9969 16.8814 44.7905 16.8814 43.5475 16.8814Z" fill="white"/>
<path d="M0 13.0105C4.18701 13.0105 8.37403 13.0105 12.6879 13.0105C12.6879 17.233 12.6879 21.4555 12.6879 25.8059C8.50091 25.8059 4.31389 25.8059 0 25.8059C0 21.5834 0 17.3609 0 13.0105ZM5.69881 16.8814C5.24416 17.8343 4.85842 18.8114 4.47748 19.7954C4.37374 20.0631 4.26925 20.3305 4.16469 20.5979C4.0985 20.7682 4.03234 20.9385 3.96624 21.1089C3.93499 21.1887 3.90375 21.2686 3.87157 21.3508C3.71161 21.7391 3.71161 21.7391 3.65584 22.1501C4.04616 22.1501 4.43647 22.1501 4.83861 22.1501C4.94506 21.7953 5.05151 21.4404 5.16119 21.0749C5.83537 21.1103 6.50955 21.1458 7.20416 21.1824C7.34609 21.5017 7.48802 21.8211 7.63426 22.1501C8.02457 22.1501 8.41489 22.1501 8.81703 22.1501C8.59947 21.4842 8.36569 20.828 8.11392 20.1743C8.07883 20.0829 8.04374 19.9914 8.00759 19.8972C7.93415 19.706 7.86059 19.5148 7.78694 19.3236C7.67379 19.0298 7.56118 18.7358 7.44861 18.4418C7.37696 18.2554 7.30528 18.069 7.23356 17.8827C7.19985 17.7946 7.16614 17.7064 7.1314 17.6156C7.00219 17.2191 7.00219 17.2191 6.77406 16.8814C6.59276 16.8736 6.41116 16.8724 6.22972 16.8747C5.96426 16.878 5.96426 16.878 5.69881 16.8814Z" fill="white"/>
<path d="M13.0105 0C17.233 0 21.4555 0 25.806 0C25.806 4.2225 25.806 8.44499 25.806 12.7954C21.5835 12.7954 17.361 12.7954 13.0105 12.7954C13.0105 8.57295 13.0105 4.35045 13.0105 0ZM17.3115 3.76337C17.3115 5.50204 17.3115 7.24072 17.3115 9.03208C17.7905 9.04095 18.2695 9.04982 18.7631 9.05896C18.9124 9.06288 19.0618 9.06679 19.2157 9.07083C19.9964 9.07781 20.5258 9.03761 21.1824 8.60198C21.5001 8.25252 21.6376 7.9857 21.6595 7.52001C21.5945 6.9349 21.443 6.6907 21.0009 6.31036C20.9189 6.25048 20.8368 6.1906 20.7523 6.12891C20.841 6.04242 20.9297 5.95593 21.0211 5.86682C21.3239 5.50276 21.3631 5.20935 21.3357 4.74369C21.266 4.39711 21.1173 4.21443 20.8598 3.97842C20.4788 3.73098 20.1536 3.73844 19.7056 3.74237C19.5173 3.74317 19.5173 3.74317 19.3252 3.74399C19.0869 3.74693 19.0869 3.74693 18.8437 3.74993C18.0853 3.75658 18.0853 3.75658 17.3115 3.76337Z" fill="white"/>
<path d="M39.0315 26.0211C43.254 26.0211 47.4765 26.0211 51.8269 26.0211C51.8269 30.2436 51.8269 34.4661 51.8269 38.8165C47.6044 38.8165 43.3819 38.8165 39.0315 38.8165C39.0315 34.594 39.0315 30.3715 39.0315 26.0211ZM43.1174 29.6769C43.1174 31.4511 43.1174 33.2252 43.1174 35.0531C43.5565 35.062 43.9956 35.0709 44.4481 35.08C44.5842 35.0839 44.7204 35.0878 44.8607 35.0919C45.7651 35.1006 46.5303 34.9923 47.2504 34.4118C47.8667 33.6338 48.1288 32.9328 48.0447 31.9232C47.9067 31.2262 47.5384 30.5744 46.9686 30.1452C45.7534 29.4341 44.5698 29.6769 43.1174 29.6769Z" fill="white"/>
<path d="M44.4077 30.7521C45.8626 30.7521 45.8626 30.7521 46.4843 31.2898C46.8757 31.7537 46.8217 32.3268 46.7732 32.9026C46.6388 33.306 46.4945 33.504 46.1953 33.8032C45.8055 33.9779 45.8055 33.9779 44.4077 33.9779C44.4077 32.9134 44.4077 31.8489 44.4077 30.7521Z" fill="white"/>
<path d="M18.4943 6.77412C18.7361 6.76248 18.9781 6.75415 19.2201 6.74724C19.3548 6.74225 19.4895 6.73726 19.6283 6.73212C19.9996 6.77412 19.9996 6.77412 20.2638 6.96985C20.4297 7.20422 20.4297 7.20422 20.423 7.54023C20.3222 7.84937 20.3222 7.84937 19.9996 8.06442C19.6388 8.08542 19.6388 8.08542 19.2268 8.07786C19.09 8.07592 18.9532 8.07398 18.8122 8.07198C18.6549 8.06823 18.6549 8.06823 18.4943 8.06442C18.4943 7.63862 18.4943 7.21282 18.4943 6.77412Z" fill="white"/>
<path d="M18.4943 4.73102C18.7026 4.72521 18.9109 4.72104 19.1193 4.71758C19.2353 4.71509 19.3513 4.71259 19.4708 4.71002C19.7846 4.73102 19.7846 4.73102 20.1072 4.94607C20.1475 5.32241 20.1475 5.32241 20.1072 5.69875C19.7279 5.95156 19.5664 5.93685 19.1193 5.92724C19.0024 5.9253 18.8856 5.92335 18.7652 5.92136C18.6311 5.91761 18.6311 5.91761 18.4943 5.9138C18.4943 5.52348 18.4943 5.13317 18.4943 4.73102Z" fill="white"/>
<path d="M6.12889 18.3868C6.46875 18.5567 6.50985 18.899 6.62619 19.2403C6.65086 19.3098 6.67553 19.3793 6.70095 19.4509C6.88156 19.9685 6.88156 19.9685 6.88156 20.2147C6.45576 20.2147 6.02996 20.2147 5.59126 20.2147C5.7212 19.575 5.8865 18.9927 6.12889 18.3868Z" fill="white"/>
</svg>
