<svg width="228" height="67" viewBox="0 0 228 67" fill="none" xmlns="http://www.w3.org/2000/svg">
<g clip-path="url(#clip0_52_5269)">
<path fill-rule="evenodd" clip-rule="evenodd" d="M19.8868 22.6067L11.9301 27.4628V66.7358L30.7885 55.2263V45.0106L19.8868 51.6828V22.6067ZM47.0073 45.3275V15.6371L36.4689 21.9452V12.4863L54.3946 1.5459V40.819L47.0073 45.3275Z" fill="white"/>
<path d="M33.931 1.2002L23.0293 7.62951V46.3268L33.931 39.655V66.7069L44.4694 59.6708V20.3669L33.931 26.675V1.2002Z" fill="white"/>
<path d="M84.5409 22.2935C85.1502 22.4813 85.6735 22.8959 86.111 23.5374C86.5484 24.1633 86.7673 24.883 86.7673 25.6967C86.7673 27.4335 86.2046 28.7322 85.08 29.5927C83.955 30.4377 82.3144 30.8601 80.1585 30.8601H70.5027C70.3308 30.8601 70.1824 30.7975 70.0576 30.6724C69.9327 30.5471 69.8699 30.3985 69.8699 30.2264V15.0647C69.8699 14.8926 69.9327 14.7439 70.0576 14.6187C70.1824 14.4936 70.3308 14.431 70.5027 14.431H79.9242C82.1425 14.431 83.7755 14.8378 84.8222 15.6514C85.8844 16.4494 86.4158 17.662 86.4158 19.2893V19.3597C86.4158 20.1108 86.2127 20.7523 85.8065 21.2843C85.4003 21.8163 84.9783 22.1527 84.5409 22.2935ZM80.0645 19.5005C80.0645 19.2189 79.9785 18.9763 79.807 18.7729C79.6505 18.5695 79.4162 18.4678 79.1036 18.4678H75.9634V20.6036H79.1036C79.4162 20.6036 79.6505 20.4941 79.807 20.275C79.9785 20.0403 80.0645 19.7822 80.0645 19.5005ZM79.3615 26.8232C79.7211 26.8232 79.9866 26.7059 80.1585 26.4712C80.3458 26.2208 80.4394 25.947 80.4394 25.6497V25.6263C80.4394 25.329 80.3381 25.0708 80.135 24.8517C79.9473 24.6327 79.6895 24.5232 79.3615 24.5232H75.9634V26.8232H79.3615ZM100.937 26.0487H105.179C105.35 26.0487 105.499 26.1113 105.624 26.2365C105.749 26.3617 105.811 26.5103 105.811 26.6824V30.2264C105.811 30.3985 105.749 30.5471 105.624 30.6724C105.499 30.7975 105.35 30.8601 105.179 30.8601H90.3203C90.1484 30.8601 90 30.7975 89.8752 30.6724C89.7499 30.5471 89.6875 30.3985 89.6875 30.2264V26.6824C89.6875 26.5103 89.7499 26.3617 89.8752 26.2365C90 26.1113 90.1484 26.0487 90.3203 26.0487H94.609V19.2424H90.3203C90.1484 19.2424 90 19.1798 89.8752 19.0546C89.7499 18.9294 89.6875 18.7808 89.6875 18.6087V15.0647C89.6875 14.8926 89.7499 14.7439 89.8752 14.6187C90 14.4936 90.1484 14.431 90.3203 14.431H105.179C105.35 14.431 105.499 14.4936 105.624 14.6187C105.749 14.7439 105.811 14.8926 105.811 15.0647V18.6087C105.811 18.7808 105.749 18.9294 105.624 19.0546C105.499 19.1798 105.35 19.2424 105.179 19.2424H100.937V26.0487ZM125.746 14.431C125.918 14.431 126.066 14.4936 126.191 14.6187C126.316 14.7439 126.379 14.8926 126.379 15.0647V18.8434C126.379 19.0155 126.316 19.1641 126.191 19.2893C126.066 19.4145 125.918 19.4771 125.746 19.4771H120.707V30.2264C120.707 30.3985 120.645 30.5471 120.52 30.6724C120.395 30.7975 120.247 30.8601 120.075 30.8601H115.247C115.075 30.8601 114.926 30.7975 114.802 30.6724C114.677 30.5471 114.614 30.3985 114.614 30.2264V19.4771H109.575C109.403 19.4771 109.255 19.4145 109.13 19.2893C109.005 19.1641 108.943 19.0155 108.943 18.8434V15.0647C108.943 14.8926 109.005 14.7439 109.13 14.6187C109.255 14.4936 109.403 14.431 109.575 14.431H125.746ZM145.212 26.0487C145.384 26.0487 145.532 26.1113 145.657 26.2365C145.782 26.3617 145.845 26.5103 145.845 26.6824V30.2264C145.845 30.3985 145.782 30.5471 145.657 30.6724C145.532 30.7975 145.384 30.8601 145.212 30.8601H131.526C131.354 30.8601 131.205 30.7975 131.08 30.6724C130.955 30.5471 130.893 30.3985 130.893 30.2264V15.0647C130.893 14.8926 130.955 14.7439 131.08 14.6187C131.205 14.4936 131.354 14.431 131.526 14.431H136.588C136.759 14.431 136.908 14.4936 137.033 14.6187C137.158 14.7439 137.22 14.8926 137.22 15.0647V26.0487H145.212ZM160.671 26.0487H164.912C165.084 26.0487 165.233 26.1113 165.357 26.2365C165.483 26.3617 165.545 26.5103 165.545 26.6824V30.2264C165.545 30.3985 165.483 30.5471 165.357 30.6724C165.233 30.7975 165.084 30.8601 164.912 30.8601H150.054C149.882 30.8601 149.734 30.7975 149.609 30.6724C149.484 30.5471 149.421 30.3985 149.421 30.2264V26.6824C149.421 26.5103 149.484 26.3617 149.609 26.2365C149.734 26.1113 149.882 26.0487 150.054 26.0487H154.343V19.2424H150.054C149.882 19.2424 149.734 19.1798 149.609 19.0546C149.484 18.9294 149.421 18.7808 149.421 18.6087V15.0647C149.421 14.8926 149.484 14.7439 149.609 14.6187C149.734 14.4936 149.882 14.431 150.054 14.431H164.912C165.084 14.431 165.233 14.4936 165.357 14.6187C165.483 14.7439 165.545 14.8926 165.545 15.0647V18.6087C165.545 18.7808 165.483 18.9294 165.357 19.0546C165.233 19.1798 165.084 19.2424 164.912 19.2424H160.671V26.0487ZM185.831 20.9557C186.003 20.9557 186.152 21.0183 186.277 21.1435C186.402 21.2686 186.464 21.4173 186.464 21.5894V24.0772C186.464 26.4555 185.652 28.2236 184.027 29.3815C182.418 30.5237 180.285 31.0948 177.629 31.0948C174.973 31.0948 172.832 30.5237 171.207 29.3815C169.598 28.2236 168.794 26.4399 168.794 24.0303V21.2608C168.794 19.6648 169.184 18.3427 169.965 17.2944C170.747 16.2304 171.801 15.448 173.129 14.9473C174.457 14.4466 175.957 14.1963 177.629 14.1963C179.629 14.1963 181.277 14.5249 182.574 15.182C183.87 15.8392 184.808 16.5824 185.386 17.4117C185.98 18.241 186.277 18.9138 186.277 19.4301C186.277 19.5709 186.222 19.6961 186.113 19.8056C186.019 19.8995 185.902 19.9465 185.761 19.9465H180.465C180.152 19.9465 179.926 19.8604 179.785 19.6883C179.3 19.0781 178.582 18.7729 177.629 18.7729C176.91 18.7729 176.309 18.9372 175.824 19.2658C175.355 19.5944 175.121 20.0169 175.121 20.5332V24.5232C175.121 25.149 175.355 25.6419 175.824 26.0018C176.293 26.346 176.894 26.5181 177.629 26.5181C178.597 26.5181 179.309 26.3538 179.761 26.0253C180.23 25.681 180.472 25.282 180.488 24.8283H179.035C178.863 24.8283 178.715 24.7657 178.59 24.6405C178.465 24.5153 178.402 24.3667 178.402 24.1946V21.5894C178.402 21.4173 178.465 21.2686 178.59 21.1435C178.715 21.0183 178.863 20.9557 179.035 20.9557H185.831ZM205.11 14.431C205.282 14.431 205.43 14.4936 205.555 14.6187C205.68 14.7439 205.743 14.8926 205.743 15.0647V30.2264C205.743 30.3985 205.68 30.5471 205.555 30.6724C205.43 30.7975 205.282 30.8601 205.11 30.8601H200.282C200.11 30.8601 199.962 30.7975 199.837 30.6724C199.712 30.5471 199.649 30.3985 199.649 30.2264V25.2272H194.962V30.2264C194.962 30.3985 194.899 30.5471 194.775 30.6724C194.65 30.7975 194.501 30.8601 194.329 30.8601H189.502C189.33 30.8601 189.181 30.8053 189.056 30.6958C188.931 30.5707 188.869 30.4142 188.869 30.2264V15.0647C188.869 14.8926 188.931 14.7439 189.056 14.6187C189.181 14.4936 189.33 14.431 189.502 14.431H194.329C194.501 14.431 194.65 14.4936 194.775 14.6187C194.899 14.7439 194.962 14.8926 194.962 15.0647V19.8761H199.649V15.0647C199.649 14.8926 199.712 14.7439 199.837 14.6187C199.962 14.4936 200.11 14.431 200.282 14.431H205.11ZM225.302 14.431C225.474 14.431 225.623 14.4936 225.748 14.6187C225.872 14.7439 225.935 14.8926 225.935 15.0647V18.8434C225.935 19.0155 225.872 19.1641 225.748 19.2893C225.623 19.4145 225.474 19.4771 225.302 19.4771H220.264V30.2264C220.264 30.3985 220.201 30.5471 220.076 30.6724C219.951 30.7975 219.803 30.8601 219.631 30.8601H214.803C214.631 30.8601 214.483 30.7975 214.358 30.6724C214.233 30.5471 214.17 30.3985 214.17 30.2264V19.4771H209.131C208.96 19.4771 208.811 19.4145 208.686 19.2893C208.561 19.1641 208.499 19.0155 208.499 18.8434V15.0647C208.499 14.8926 208.561 14.7439 208.686 14.6187C208.811 14.4936 208.96 14.431 209.131 14.431H225.302Z" fill="white"/>
<path d="M85.4782 50.9768C85.6501 50.9768 85.7984 51.0397 85.9237 51.1648C86.0486 51.2898 86.111 51.4384 86.111 51.6106V55.1545C86.111 55.3266 86.0486 55.4752 85.9237 55.6007C85.7984 55.7257 85.6501 55.7882 85.4782 55.7882H71.7919C71.62 55.7882 71.4716 55.7257 71.3464 55.6007C71.2215 55.4752 71.1591 55.3266 71.1591 55.1545V39.993C71.1591 39.8209 71.2215 39.6723 71.3464 39.5468C71.4716 39.4218 71.62 39.3592 71.7919 39.3592H76.8541C77.0256 39.3592 77.1744 39.4218 77.2992 39.5468C77.4241 39.6723 77.4865 39.8209 77.4865 39.993V50.9768H85.4782ZM94.3747 54.9904C94.1716 55.5223 93.8201 55.7882 93.3203 55.7882H88.8909C88.7502 55.7882 88.6253 55.7415 88.5159 55.6474C88.4222 55.5381 88.3752 55.4127 88.3752 55.2718L88.3987 55.1313L93.5076 40.1339C93.57 39.9305 93.6872 39.7502 93.8591 39.5939C94.0309 39.4375 94.2653 39.3592 94.562 39.3592H101.077C101.374 39.3592 101.609 39.4375 101.781 39.5939C101.952 39.7502 102.07 39.9305 102.132 40.1339L107.241 55.1313L107.264 55.2718C107.264 55.4127 107.21 55.5381 107.1 55.6474C107.007 55.7415 106.889 55.7882 106.749 55.7882H102.319C101.819 55.7882 101.468 55.5223 101.265 54.9904L100.679 53.3474H94.9605L94.3747 54.9904ZM97.8198 43.8889L96.156 48.7706H99.4836L97.8198 43.8889ZM124.363 47.2217C124.973 47.4093 125.496 47.8242 125.933 48.4657C126.371 49.0914 126.59 49.8112 126.59 50.6248C126.59 52.3616 126.027 53.6604 124.903 54.5211C123.778 55.366 122.137 55.7882 119.981 55.7882H110.325C110.153 55.7882 110.005 55.7257 109.88 55.6007C109.755 55.4752 109.692 55.3266 109.692 55.1545V39.993C109.692 39.8209 109.755 39.6723 109.88 39.5468C110.005 39.4218 110.153 39.3592 110.325 39.3592H119.747C121.965 39.3592 123.598 39.7661 124.645 40.5797C125.707 41.3775 126.238 42.5902 126.238 44.2174V44.288C126.238 45.0391 126.035 45.6806 125.629 46.2124C125.223 46.7443 124.801 47.0809 124.363 47.2217ZM119.887 44.4289C119.887 44.1472 119.801 43.9048 119.63 43.7014C119.473 43.498 119.239 43.3961 118.926 43.3961H115.786V45.532H118.926C119.239 45.532 119.473 45.4224 119.63 45.2032C119.801 44.9685 119.887 44.7103 119.887 44.4289ZM119.184 51.7514C119.544 51.7514 119.809 51.6341 119.981 51.3994C120.168 51.1489 120.262 50.8753 120.262 50.5781V50.5546C120.262 50.2574 120.161 49.9992 119.958 49.7799C119.77 49.5611 119.512 49.4515 119.184 49.4515H115.786V51.7514H119.184ZM138.861 45.3205C140.579 45.5084 141.955 45.8134 142.985 46.236C144.033 46.6586 144.79 47.214 145.259 47.9022C145.728 48.5908 145.962 49.4515 145.962 50.4839C145.962 51.6106 145.595 52.5963 144.86 53.4412C144.142 54.2706 143.142 54.9121 141.861 55.366C140.579 55.8041 139.119 56.0229 137.478 56.0229C135.65 56.0229 134.104 55.7963 132.838 55.3425C131.572 54.8886 130.627 54.2861 130.002 53.5354C129.377 52.7684 129.065 51.9313 129.065 51.0239C129.065 50.8676 129.112 50.7421 129.206 50.6483C129.315 50.5546 129.448 50.5075 129.604 50.5075H134.408C134.736 50.5075 135.002 50.6094 135.205 50.8128C135.471 51.0629 135.767 51.235 136.096 51.3292C136.424 51.4071 136.885 51.4465 137.478 51.4465C138.963 51.4465 139.705 51.2196 139.705 50.7657C139.705 50.5781 139.603 50.4214 139.4 50.2963C139.212 50.1555 138.869 50.0381 138.369 49.9443C137.884 49.8347 137.166 49.7251 136.213 49.6155C134.072 49.3654 132.432 48.8331 131.291 48.0195C130.151 47.1905 129.581 46.0249 129.581 44.5227C129.581 43.4586 129.901 42.5199 130.541 41.7063C131.182 40.8927 132.088 40.2589 133.26 39.805C134.447 39.3514 135.822 39.1245 137.384 39.1245C139.009 39.1245 140.431 39.3827 141.65 39.8988C142.868 40.3998 143.798 41.0255 144.439 41.7766C145.079 42.5276 145.4 43.2629 145.4 43.9827C145.4 44.1394 145.345 44.2645 145.235 44.3583C145.142 44.4521 145.009 44.4992 144.837 44.4992H139.798C139.533 44.4992 139.291 44.4054 139.072 44.2174C138.9 44.0611 138.697 43.936 138.462 43.8419C138.228 43.7481 137.869 43.7014 137.384 43.7014C136.338 43.7014 135.814 43.9202 135.814 44.3583C135.814 44.5929 136.017 44.7809 136.424 44.9218C136.83 45.0468 137.642 45.18 138.861 45.3205Z" fill="white"/>
</g>
<defs>
<clipPath id="clip0_52_5269">
<rect width="227" height="66" fill="white" transform="translate(0.5 0.896973)"/>
</clipPath>
</defs>
</svg>
