<svg width="63" height="18" viewBox="0 0 63 18" fill="none" xmlns="http://www.w3.org/2000/svg">
<path d="M0.198975 0.413545V3.92383C1.00707 3.5037 1.80897 3.55486 2.60467 3.4692V0C1.73184 0 1.00707 0.00736399 0.198975 0.413545Z" fill="white"/>
<path d="M7.25294 0.80149C6.49329 0.532511 5.72782 0.297639 4.95654 0.146484V3.57538C5.72782 3.71336 6.49329 3.93583 7.25294 4.19163V0.80149Z" fill="white"/>
<path d="M4.95515 7.00557V3.57628C4.17767 3.43753 3.39437 3.3825 2.60449 3.4697V6.93813C3.39437 6.84007 4.17767 6.87999 4.95515 7.00557Z" fill="white"/>
<path d="M0.198975 7.43399V10.9439C1.00707 10.4962 1.80897 10.5203 2.60467 10.4075V6.9375C1.78029 7.00494 1.00707 6.9999 0.198975 7.43399Z" fill="white"/>
<path d="M4.95532 7.00488V10.4338C5.7266 10.5454 6.49207 10.7438 7.25172 10.9717V7.5816C6.49207 7.33897 5.7266 7.13123 4.95532 7.00488Z" fill="white"/>
<path d="M2.60449 10.408V13.8757C3.39437 13.7501 4.17767 13.7629 4.95515 13.8621V10.4344C4.17767 10.322 3.39437 10.296 2.60449 10.408Z" fill="white"/>
<path d="M17.9194 8.91712C18.8139 8.18304 19.3174 7.00326 19.3174 5.79014C19.3174 3.90962 18.1422 3.1395 15.6962 2.90076V1.26169C15.1706 1.23365 14.6467 1.17932 14.1266 1.09891V2.73526C13.6355 2.66472 13.1421 2.57403 12.646 2.46783V0.819081C12.1088 0.699707 11.5689 0.562505 11.0259 0.414062V2.07716C10.5186 1.94305 10.0089 1.79926 9.49694 1.65082V5.00259C8.75396 4.73128 8.00593 4.44564 7.25171 4.19178V7.58153C8.00593 7.8226 8.75396 8.097 9.49694 8.35435V11.7053C8.75396 11.4604 8.00593 11.1992 7.25171 10.9689V14.3591C8.00593 14.5742 8.75396 14.8242 9.49694 15.0567C10.0089 15.1695 10.5186 15.2784 11.0259 15.378V17.0407C11.5685 17.1427 12.1088 17.2345 12.646 17.3074V15.6606C13.1421 15.7327 13.6355 15.79 14.1266 15.8268V17.4632C14.6489 17.4995 15.1728 17.5093 15.6962 17.4926V15.8668C18.4093 15.7206 19.8181 13.6134 19.8181 11.5116C19.8181 9.96125 19.0957 9.2078 17.9194 8.91712ZM12.651 5.16382C13.1456 5.26265 13.6374 5.34637 14.1266 5.40954C14.3451 5.43771 14.5632 5.46187 14.7808 5.48202C14.8226 5.4859 14.8633 5.49016 14.9033 5.4952L14.9331 5.49869C14.9699 5.50334 15.0064 5.50838 15.042 5.5138H15.0494C15.0881 5.52 15.1269 5.52698 15.1633 5.53396L15.1827 5.53783C15.218 5.5452 15.2529 5.55256 15.2866 5.5607H15.2904C15.3273 5.57 15.3629 5.5793 15.3978 5.58977L15.4048 5.5917C15.505 5.62076 15.6025 5.6585 15.6962 5.70449C16.1078 5.90913 16.3164 6.25989 16.3164 6.7773C16.3164 7.30441 16.1067 7.67958 15.6962 7.86988C15.6029 7.91192 15.5051 7.94351 15.4048 7.96406H15.3982C15.3633 7.97143 15.3273 7.97763 15.2904 7.98306H15.2866C15.2529 7.98771 15.218 7.99158 15.1827 7.99468H15.1633C15.1246 7.9974 15.0885 7.99972 15.0494 8.0005H15.0432C15.0075 8.0005 14.9711 8.0005 14.9343 8.0005H14.904C14.8653 8.0005 14.8238 7.99701 14.7819 7.99391C14.5645 7.97724 14.3463 7.95515 14.1277 7.93035C13.6386 7.87337 13.1468 7.79624 12.6522 7.704L12.651 5.16382ZM15.6959 13.1867C15.6641 13.1917 15.6319 13.196 15.599 13.1998L15.5699 13.2029C15.5459 13.2053 15.5214 13.2076 15.4966 13.2091L15.4621 13.2115C15.4373 13.2115 15.4121 13.2142 15.387 13.2146H15.3544C15.3184 13.2146 15.2819 13.2146 15.2443 13.2146C14.8735 13.2068 14.501 13.186 14.1266 13.1522C13.6374 13.1084 13.1456 13.0444 12.651 12.9657V10.2915C13.1456 10.3771 13.6374 10.4465 14.1266 10.4984C14.5006 10.5372 14.8734 10.5635 15.2443 10.5759C15.2831 10.5759 15.3184 10.5787 15.3544 10.581L15.387 10.5829L15.4621 10.5883L15.4966 10.5914L15.5699 10.5988L15.599 10.6019L15.6959 10.6151C16.4439 10.7259 16.8342 11.0941 16.8342 11.8449C16.8342 12.5882 16.4439 13.0619 15.6959 13.1859V13.1867Z" fill="white"/>
<path d="M24.3586 5.85257H27.1794C27.4518 5.8511 27.7215 5.9064 27.9712 6.01496C28.2126 6.11888 28.4316 6.26852 28.6162 6.45564C28.7998 6.64381 28.9474 6.86412 29.0514 7.1056C29.1601 7.35536 29.2154 7.62506 29.2138 7.89742C29.2117 8.22593 29.132 8.54929 28.9813 8.84117C28.951 8.89988 28.916 8.95601 28.8766 9.009L28.8452 9.04039L28.908 9.07178C29.2504 9.27367 29.5345 9.56109 29.7324 9.90585C29.9316 10.2518 30.0347 10.6446 30.0312 11.0438C30.0317 11.3413 29.971 11.6358 29.8529 11.9088C29.7366 12.1812 29.5713 12.43 29.3654 12.6429C29.1573 12.8577 28.9098 13.0304 28.6363 13.1514C28.3527 13.2782 28.0451 13.3425 27.7344 13.3402H24.3586V5.85257ZM27.1794 8.74661C27.2841 8.74666 27.3876 8.72529 27.4837 8.68382C27.5819 8.64157 27.6723 8.58313 27.7511 8.51096C27.8326 8.43537 27.8984 8.34451 27.9449 8.24353C27.9945 8.13497 28.0195 8.01678 28.0181 7.89742C28.018 7.67941 27.9385 7.4689 27.7945 7.30521C27.6441 7.12692 27.4361 7.03778 27.1705 7.03778H25.5439V8.73653L27.1794 8.74661ZM25.5439 12.1445H27.7352C27.8884 12.146 28.0401 12.1157 28.1809 12.0554C28.3129 11.999 28.4323 11.917 28.5325 11.8143C28.6311 11.7125 28.7099 11.5933 28.765 11.4627C28.8205 11.3299 28.8491 11.1874 28.8491 11.0434C28.8491 10.8994 28.8205 10.7569 28.765 10.624C28.7099 10.4935 28.6311 10.3743 28.5325 10.2725C28.4323 10.1697 28.3129 10.0878 28.1809 10.0314C28.0401 9.97112 27.8884 9.94076 27.7352 9.94228H25.5439V12.1445Z" fill="white"/>
<path d="M32.0454 6.31409C32.0458 6.40642 32.028 6.49793 31.9928 6.58331C31.9576 6.66868 31.9059 6.74623 31.8405 6.81145C31.7751 6.87666 31.6975 6.92826 31.612 6.96324C31.5266 6.99822 31.435 7.01589 31.3427 7.01522C31.2485 7.01762 31.1548 7.00074 31.0674 6.96562C30.9799 6.93049 30.9006 6.87786 30.8342 6.81096C30.7678 6.74629 30.7154 6.66868 30.6802 6.58296C30.645 6.49723 30.6278 6.40519 30.6296 6.31254C30.6275 6.21834 30.6445 6.1247 30.6796 6.03727C30.7148 5.94983 30.7672 5.87042 30.8339 5.80381C30.9005 5.7372 30.9799 5.68479 31.0674 5.64972C31.1549 5.61466 31.2485 5.59767 31.3427 5.59979C31.4353 5.59795 31.5272 5.61513 31.6129 5.65026C31.6986 5.68539 31.7761 5.73773 31.8407 5.80404C31.908 5.87051 31.9608 5.95008 31.996 6.03782C32.0312 6.12556 32.048 6.21959 32.0454 6.31409ZM31.9291 7.43806V13.3401H30.7451L30.7346 7.43613L31.9291 7.43806Z" fill="white"/>
<path d="M35.7369 13.3403C35.4639 13.3418 35.1939 13.2846 34.945 13.1725C34.45 12.9503 34.0568 12.5496 33.8439 12.0505C33.7355 11.7989 33.6802 11.5276 33.6815 11.2536V8.25569H32.811V7.05885H33.6815V5.60156H34.8664V7.05885H36.062V8.25569H34.8664V11.2757C34.8662 11.3871 34.8877 11.4976 34.9295 11.6009C34.971 11.7054 35.0315 11.8013 35.1078 11.8838C35.184 11.9678 35.2763 12.0356 35.3791 12.0834C35.4877 12.133 35.6059 12.158 35.7252 12.1567H36.543V13.3415L35.7369 13.3403Z" fill="white"/>
<path d="M37.3198 13.3403V5.60156H38.5155V13.3403H37.3198Z" fill="white"/>
<path d="M45.4156 13.3401H44.2409V12.7948L44.1246 12.8789C43.8654 13.068 43.5789 13.2164 43.275 13.3192C42.9678 13.4241 42.6454 13.4773 42.3208 13.4766C41.9026 13.4797 41.4882 13.3957 41.1042 13.2301C40.737 13.0722 40.4043 12.8437 40.1252 12.5576C39.8475 12.2724 39.6253 11.9381 39.4698 11.5716C39.3082 11.1957 39.226 10.7905 39.2283 10.3814C39.2264 9.97064 39.3086 9.56387 39.4698 9.18608C39.6244 8.81685 39.848 8.48049 40.1287 8.19505C40.4155 7.90598 40.757 7.67692 41.1333 7.52121C41.5096 7.3655 41.9132 7.28626 42.3204 7.28812C42.7119 7.29509 43.0509 7.35103 43.3374 7.45594C43.6268 7.56215 43.899 7.71051 44.1451 7.89623L44.2393 7.97994V7.7598H45.414L45.4156 13.3401ZM44.2409 10.3829C44.2446 10.1144 44.1909 9.84811 44.0835 9.60195C43.9831 9.37446 43.8381 9.16939 43.6572 8.99888C43.4793 8.83082 43.272 8.69706 43.0456 8.60433C42.8159 8.5103 42.5701 8.46224 42.322 8.46286C42.0676 8.46203 41.8159 8.51375 41.5825 8.61479C41.3528 8.71285 41.1428 8.85149 40.9623 9.02408C40.6856 9.29621 40.4982 9.64613 40.4252 10.0273C40.3522 10.4085 40.3969 10.8029 40.5534 11.1581C40.6562 11.3881 40.8021 11.5962 40.9833 11.7712C41.1609 11.9423 41.3697 12.0777 41.5984 12.17C41.837 12.2671 42.0927 12.3153 42.3502 12.3117C42.6078 12.3081 42.8621 12.2528 43.0979 12.1491C43.3268 12.0472 43.5335 11.9011 43.706 11.7193C43.874 11.5409 44.0074 11.3329 44.0994 11.1058C44.1935 10.8764 44.2416 10.6308 44.2409 10.3829Z" fill="white"/>
<path d="M47.24 7.15332L48.9705 11.0961L50.4596 7.15332H51.7285L49.3794 13.3825L49.348 13.4452L48.8011 14.8925L47.5221 14.9029L48.3612 12.6902L45.9385 7.15332H47.24Z" fill="white"/>
<path d="M53.0183 10.6868L53.0393 10.7705C53.0898 10.9903 53.1882 11.1962 53.3276 11.3736C53.4592 11.5405 53.6146 11.6872 53.7888 11.8088C53.9557 11.9256 54.1397 12.0158 54.3342 12.0762C54.5088 12.1327 54.6909 12.1628 54.8744 12.1654C55.2519 12.1654 55.5788 12.0762 55.855 11.898C56.1445 11.7058 56.3895 11.4538 56.5732 11.1588L57.6429 11.6515C57.486 11.9494 57.2824 12.2202 57.0398 12.4537C56.826 12.6573 56.5862 12.8318 56.3267 12.9727C56.0894 13.1017 55.8353 13.197 55.5717 13.256C55.3254 13.3108 55.074 13.3389 54.8217 13.3397C54.4225 13.3412 54.0275 13.2573 53.6633 13.0936C52.9342 12.7697 52.3512 12.1867 52.0273 11.4577C51.8636 11.0933 51.7795 10.6982 51.7808 10.2988C51.7786 9.88345 51.8589 9.47179 52.0168 9.08763C52.169 8.71427 52.3894 8.37253 52.6668 8.07993C52.9451 7.78853 53.2784 7.55511 53.6474 7.39315C54.0325 7.22803 54.447 7.14247 54.866 7.14161C55.285 7.14074 55.6998 7.22459 56.0856 7.38811C56.4512 7.54683 56.7838 7.77268 57.0662 8.05396C57.3465 8.33571 57.5701 8.66858 57.7251 9.03454C57.8871 9.41424 57.9691 9.82322 57.9661 10.236C57.9661 10.2779 57.9661 10.3523 57.9611 10.4612C57.9601 10.5366 57.9548 10.6119 57.9452 10.6868H53.0183ZM56.6151 9.43878C56.5493 9.29438 56.4685 9.15732 56.374 9.02988C56.2714 8.89252 56.1495 8.77073 56.012 8.66827C55.8605 8.55559 55.6925 8.46707 55.5139 8.40589C55.1374 8.28275 54.7329 8.27371 54.3512 8.37992C54.1769 8.42848 54.0107 8.50267 53.8582 8.60006C53.5336 8.80738 53.2781 9.10664 53.1241 9.45971L53.1137 9.51242H56.6476L56.6151 9.43878Z" fill="white"/>
<path d="M59.8767 7.15237V7.59266L59.993 7.51941C60.183 7.40726 60.3854 7.31751 60.5961 7.25198C60.8152 7.18477 61.0432 7.15118 61.2724 7.15237C61.4127 7.15242 61.5529 7.16292 61.6917 7.18377C61.8296 7.2044 61.9662 7.23248 62.101 7.26787L61.6394 8.34766C61.5795 8.33215 61.518 8.32344 61.4561 8.32169C61.3824 8.31821 61.3317 8.31627 61.3038 8.31627C61.109 8.315 60.9161 8.35461 60.7375 8.43254C60.5676 8.50592 60.4143 8.61283 60.2868 8.74687C60.1599 8.88125 60.0586 9.03768 59.9879 9.20847C59.9135 9.38789 59.8761 9.58049 59.8779 9.77472V13.3404H58.7031V7.15237H59.8767Z" fill="white"/>
</svg>
