<svg width="104" height="31" viewBox="0 0 104 31" fill="none" xmlns="http://www.w3.org/2000/svg">
<g clip-path="url(#clip0_362_1451)">
<path fill-rule="evenodd" clip-rule="evenodd" d="M9.385 10.618L5.76831 12.8253V30.6767L14.3403 25.4451V20.8016L9.385 23.8344V10.618ZM21.7125 20.9456V7.45001L16.9223 10.3173V6.01784L25.0704 1.04492V18.8963L21.7125 20.9456Z" fill="white"/>
<path d="M15.7686 0.887695L10.8132 3.81011V21.3998L15.7686 18.3672V30.6635L20.5587 27.4652V9.59985L15.7686 12.4671V0.887695Z" fill="white"/>
<path d="M38.7731 10.4755C39.0501 10.5608 39.288 10.7493 39.4868 11.0409C39.6856 11.3254 39.7851 11.6525 39.7851 12.0224C39.7851 12.8118 39.5294 13.4021 39.0182 13.7933C38.5068 14.1774 37.7611 14.3694 36.7811 14.3694H32.3921C32.314 14.3694 32.2466 14.3409 32.1898 14.284C32.133 14.2271 32.1045 14.1596 32.1045 14.0813V7.18964C32.1045 7.11141 32.133 7.04383 32.1898 6.98694C32.2466 6.93004 32.314 6.90159 32.3921 6.90159H36.6746C37.683 6.90159 38.4252 7.08652 38.901 7.45634C39.3838 7.81906 39.6254 8.37025 39.6254 9.10992V9.14194C39.6254 9.48332 39.5331 9.77492 39.3484 10.0167C39.1638 10.2586 38.972 10.4115 38.7731 10.4755ZM36.7384 9.20594C36.7384 9.07792 36.6993 8.96768 36.6214 8.87522C36.5502 8.78276 36.4437 8.73654 36.3017 8.73654H34.8743V9.70734H36.3017C36.4437 9.70734 36.5502 9.65757 36.6214 9.55799C36.6993 9.45131 36.7384 9.33396 36.7384 9.20594ZM36.4189 12.5344C36.5823 12.5344 36.703 12.4811 36.7811 12.3744C36.8663 12.2606 36.9088 12.1362 36.9088 12.001V11.9904C36.9088 11.8552 36.8628 11.7379 36.7704 11.6383C36.6851 11.5387 36.5679 11.489 36.4189 11.489H34.8743V12.5344H36.4189ZM46.2259 12.1824H48.1539C48.232 12.1824 48.2995 12.2108 48.3562 12.2677C48.4132 12.3246 48.4416 12.3922 48.4416 12.4704V14.0813C48.4416 14.1596 48.4132 14.2271 48.3562 14.284C48.2995 14.3409 48.232 14.3694 48.1539 14.3694H41.4001C41.322 14.3694 41.2546 14.3409 41.1978 14.284C41.1409 14.2271 41.1125 14.1596 41.1125 14.0813V12.4704C41.1125 12.3922 41.1409 12.3246 41.1978 12.2677C41.2546 12.2108 41.322 12.1824 41.4001 12.1824H43.3496V9.08859H41.4001C41.322 9.08859 41.2546 9.06015 41.1978 9.00324C41.1409 8.94634 41.1125 8.87878 41.1125 8.80055V7.18964C41.1125 7.11141 41.1409 7.04383 41.1978 6.98694C41.2546 6.93004 41.322 6.90159 41.4001 6.90159H48.1539C48.232 6.90159 48.2995 6.93004 48.3562 6.98694C48.4132 7.04383 48.4416 7.11141 48.4416 7.18964V8.80055C48.4416 8.87878 48.4132 8.94634 48.3562 9.00324C48.2995 9.06015 48.232 9.08859 48.1539 9.08859H46.2259V12.1824ZM57.5028 6.90159C57.5809 6.90159 57.6484 6.93004 57.7051 6.98694C57.7619 7.04383 57.7905 7.11141 57.7905 7.18964V8.90724C57.7905 8.98547 57.7619 9.05303 57.7051 9.10992C57.6484 9.16683 57.5809 9.19527 57.5028 9.19527H55.2125V14.0813C55.2125 14.1596 55.1841 14.2271 55.1272 14.284C55.0704 14.3409 55.003 14.3694 54.9248 14.3694H52.7303C52.6522 14.3694 52.5848 14.3409 52.528 14.284C52.4712 14.2271 52.4427 14.1596 52.4427 14.0813V9.19527H50.1524C50.0742 9.19527 50.0068 9.16683 49.95 9.10992C49.8933 9.05303 49.8649 8.98547 49.8649 8.90724V7.18964C49.8649 7.11141 49.8933 7.04383 49.95 6.98694C50.0068 6.93004 50.0742 6.90159 50.1524 6.90159H57.5028ZM66.3509 12.1824C66.429 12.1824 66.4964 12.2108 66.5534 12.2677C66.6101 12.3246 66.6385 12.3922 66.6385 12.4704V14.0813C66.6385 14.1596 66.6101 14.2271 66.5534 14.284C66.4964 14.3409 66.429 14.3694 66.3509 14.3694H60.1298C60.0517 14.3694 59.9843 14.3409 59.9273 14.284C59.8706 14.2271 59.8422 14.1596 59.8422 14.0813V7.18964C59.8422 7.11141 59.8706 7.04383 59.9273 6.98694C59.9843 6.93004 60.0517 6.90159 60.1298 6.90159H62.4308C62.5088 6.90159 62.5764 6.93004 62.6332 6.98694C62.6899 7.04383 62.7183 7.11141 62.7183 7.18964V12.1824H66.3509ZM73.3776 12.1824H75.3056C75.3837 12.1824 75.4512 12.2108 75.5079 12.2677C75.5649 12.3246 75.5933 12.3922 75.5933 12.4704V14.0813C75.5933 14.1596 75.5649 14.2271 75.5079 14.284C75.4512 14.3409 75.3837 14.3694 75.3056 14.3694H68.5518C68.4737 14.3694 68.4063 14.3409 68.3495 14.284C68.2926 14.2271 68.2642 14.1596 68.2642 14.0813V12.4704C68.2642 12.3922 68.2926 12.3246 68.3495 12.2677C68.4063 12.2108 68.4737 12.1824 68.5518 12.1824H70.5013V9.08859H68.5518C68.4737 9.08859 68.4063 9.06015 68.3495 9.00324C68.2926 8.94634 68.2642 8.87878 68.2642 8.80055V7.18964C68.2642 7.11141 68.2926 7.04383 68.3495 6.98694C68.4063 6.93004 68.4737 6.90159 68.5518 6.90159H75.3056C75.3837 6.90159 75.4512 6.93004 75.5079 6.98694C75.5649 7.04383 75.5933 7.11141 75.5933 7.18964V8.80055C75.5933 8.87878 75.5649 8.94634 75.5079 9.00324C75.4512 9.06015 75.3837 9.08859 75.3056 9.08859H73.3776V12.1824ZM84.8143 9.86738C84.8924 9.86738 84.9599 9.89582 85.0166 9.95273C85.0735 10.0096 85.1019 10.0772 85.1019 10.1554V11.2863C85.1019 12.3673 84.7327 13.171 83.9941 13.6973C83.2625 14.2165 82.2931 14.4761 81.0859 14.4761C79.8785 14.4761 78.9056 14.2165 78.167 13.6973C77.4355 13.171 77.0699 12.3602 77.0699 11.2649V10.0061C77.0699 9.28062 77.2473 8.67964 77.6024 8.20313C77.9575 7.7195 78.4368 7.36389 79.0405 7.13629C79.6442 6.90871 80.326 6.79492 81.0859 6.79492C81.9949 6.79492 82.7442 6.94427 83.3335 7.24297C83.923 7.54169 84.3492 7.87952 84.6118 8.25647C84.8817 8.63341 85.0166 8.93924 85.0166 9.17394C85.0166 9.23794 84.9917 9.29485 84.9422 9.34462C84.8994 9.38731 84.8462 9.40864 84.7822 9.40864H82.3749C82.2328 9.40864 82.1298 9.36952 82.0659 9.29129C81.8457 9.01392 81.5191 8.87522 81.0859 8.87522C80.7592 8.87522 80.4857 8.9499 80.2655 9.09925C80.0525 9.24862 79.946 9.44064 79.946 9.67534V11.489C79.946 11.7734 80.0525 11.9975 80.2655 12.161C80.4787 12.3175 80.752 12.3957 81.0859 12.3957C81.5261 12.3957 81.8493 12.3211 82.0552 12.1717C82.2682 12.0153 82.3784 11.8339 82.3854 11.6276H81.725C81.6468 11.6276 81.5794 11.5992 81.5226 11.5423C81.4657 11.4854 81.4373 11.4178 81.4373 11.3396V10.1554C81.4373 10.0772 81.4657 10.0096 81.5226 9.95273C81.5794 9.89582 81.6468 9.86738 81.725 9.86738H84.8143ZM93.5772 6.90159C93.6553 6.90159 93.7228 6.93004 93.7795 6.98694C93.8365 7.04383 93.8649 7.11141 93.8649 7.18964V14.0813C93.8649 14.1596 93.8365 14.2271 93.7795 14.284C93.7228 14.3409 93.6553 14.3694 93.5772 14.3694H91.3827C91.3046 14.3694 91.2371 14.3409 91.1804 14.284C91.1236 14.2271 91.0951 14.1596 91.0951 14.0813V11.809H88.9647V14.0813C88.9647 14.1596 88.9361 14.2271 88.8794 14.284C88.8226 14.3409 88.7552 14.3694 88.677 14.3694H86.4825C86.4044 14.3694 86.337 14.3445 86.2802 14.2947C86.2233 14.2378 86.1949 14.1667 86.1949 14.0813V7.18964C86.1949 7.11141 86.2233 7.04383 86.2802 6.98694C86.337 6.93004 86.4044 6.90159 86.4825 6.90159H88.677C88.7552 6.90159 88.8226 6.93004 88.8794 6.98694C88.9361 7.04383 88.9647 7.11141 88.9647 7.18964V9.37664H91.0951V7.18964C91.0951 7.11141 91.1236 7.04383 91.1804 6.98694C91.2371 6.93004 91.3046 6.90159 91.3827 6.90159H93.5772ZM102.756 6.90159C102.834 6.90159 102.901 6.93004 102.958 6.98694C103.015 7.04383 103.043 7.11141 103.043 7.18964V8.90724C103.043 8.98547 103.015 9.05303 102.958 9.10992C102.901 9.16683 102.834 9.19527 102.756 9.19527H100.465V14.0813C100.465 14.1596 100.437 14.2271 100.38 14.284C100.323 14.3409 100.256 14.3694 100.178 14.3694H97.9832C97.9051 14.3694 97.8376 14.3409 97.7809 14.284C97.7241 14.2271 97.6955 14.1596 97.6955 14.0813V9.19527H95.4052C95.3271 9.19527 95.2596 9.16683 95.2029 9.10992C95.1461 9.05303 95.1177 8.98547 95.1177 8.90724V7.18964C95.1177 7.11141 95.1461 7.04383 95.2029 6.98694C95.2596 6.93004 95.3271 6.90159 95.4052 6.90159H102.756Z" fill="white"/>
<path d="M39.1991 23.5134C39.2772 23.5134 39.3447 23.542 39.4016 23.5988C39.4584 23.6557 39.4868 23.7232 39.4868 23.8015V25.4123C39.4868 25.4906 39.4584 25.5581 39.4016 25.6151C39.3447 25.672 39.2772 25.7004 39.1991 25.7004H32.9781C32.8999 25.7004 32.8325 25.672 32.7756 25.6151C32.7188 25.5581 32.6904 25.4906 32.6904 25.4123V18.5207C32.6904 18.4425 32.7188 18.375 32.7756 18.3179C32.8325 18.2611 32.8999 18.2327 32.9781 18.2327H35.2791C35.357 18.2327 35.4247 18.2611 35.4814 18.3179C35.5382 18.375 35.5666 18.4425 35.5666 18.5207V23.5134H39.1991ZM43.243 25.3378C43.1507 25.5795 42.9909 25.7004 42.7637 25.7004H40.7503C40.6864 25.7004 40.6296 25.6792 40.5799 25.6364C40.5373 25.5867 40.516 25.5297 40.516 25.4657L40.5266 25.4018L42.8488 18.5848C42.8772 18.4923 42.9305 18.4104 43.0086 18.3393C43.0867 18.2682 43.1933 18.2327 43.3281 18.2327H46.2896C46.4246 18.2327 46.5312 18.2682 46.6093 18.3393C46.6874 18.4104 46.7407 18.4923 46.7691 18.5848L49.0913 25.4018L49.1019 25.4657C49.1019 25.5297 49.0771 25.5867 49.0273 25.6364C48.9847 25.6792 48.9315 25.7004 48.8675 25.7004H46.8542C46.627 25.7004 46.4672 25.5795 46.3749 25.3378L46.1086 24.5909H43.5093L43.243 25.3378ZM44.8089 20.2916L44.0527 22.5106H45.5652L44.8089 20.2916ZM56.8742 21.8065C57.1512 21.8918 57.3891 22.0804 57.5879 22.372C57.7867 22.6564 57.8862 22.9836 57.8862 23.3534C57.8862 24.1429 57.6305 24.7332 57.1193 25.1244C56.6079 25.5085 55.8622 25.7004 54.8822 25.7004H50.4932C50.4151 25.7004 50.3477 25.672 50.2909 25.6151C50.2341 25.5581 50.2056 25.4906 50.2056 25.4123V18.5207C50.2056 18.4425 50.2341 18.375 50.2909 18.3179C50.3477 18.2611 50.4151 18.2327 50.4932 18.2327H54.7757C55.7841 18.2327 56.5263 18.4176 57.0021 18.7874C57.4849 19.15 57.7265 19.7013 57.7265 20.4409V20.473C57.7265 20.8144 57.6342 21.106 57.4495 21.3478C57.2649 21.5895 57.073 21.7425 56.8742 21.8065ZM54.8395 20.5371C54.8395 20.409 54.8004 20.2988 54.7225 20.2064C54.6513 20.1139 54.5448 20.0676 54.4028 20.0676H52.9754V21.0385H54.4028C54.5448 21.0385 54.6513 20.9886 54.7225 20.889C54.8004 20.7823 54.8395 20.665 54.8395 20.5371ZM54.5199 23.8655C54.6834 23.8655 54.8041 23.8122 54.8822 23.7055C54.9674 23.5916 55.0099 23.4672 55.0099 23.3322V23.3215C55.0099 23.1864 54.9639 23.069 54.8715 22.9693C54.7862 22.8699 54.669 22.82 54.5199 22.82H52.9754V23.8655H54.5199ZM63.464 20.9423C64.2451 21.0278 64.8702 21.1664 65.3388 21.3585C65.8148 21.5506 66.1592 21.803 66.3722 22.1158C66.5852 22.4288 66.6917 22.82 66.6917 23.2893C66.6917 23.8015 66.525 24.2495 66.1911 24.6336C65.8643 25.0106 65.4099 25.3022 64.8276 25.5085C64.2451 25.7076 63.5812 25.8071 62.8355 25.8071C62.0046 25.8071 61.3016 25.7041 60.7263 25.4978C60.151 25.2915 59.7214 25.0176 59.4373 24.6764C59.1533 24.3278 59.0112 23.9472 59.0112 23.5348C59.0112 23.4637 59.0324 23.4067 59.0752 23.3641C59.1248 23.3215 59.1852 23.3 59.2562 23.3H61.44C61.5892 23.3 61.7099 23.3464 61.8022 23.4388C61.9229 23.5525 62.0578 23.6307 62.2071 23.6736C62.3562 23.709 62.5657 23.7269 62.8355 23.7269C63.5103 23.7269 63.8475 23.6237 63.8475 23.4174C63.8475 23.3322 63.8014 23.2609 63.7091 23.2041C63.6238 23.14 63.4675 23.0867 63.2403 23.0441C63.0201 22.9943 62.6936 22.9444 62.2603 22.8946C61.2874 22.7809 60.5416 22.539 60.0233 22.1692C59.5047 21.7923 59.2456 21.2625 59.2456 20.5797C59.2456 20.096 59.3912 19.6693 59.6824 19.2995C59.9735 18.9297 60.3854 18.6416 60.9181 18.4353C61.4578 18.2291 62.0827 18.126 62.7929 18.126C63.5315 18.126 64.1777 18.2433 64.7316 18.4779C65.2855 18.7057 65.7083 18.99 65.9994 19.3315C66.2906 19.6729 66.4361 20.0071 66.4361 20.3343C66.4361 20.4055 66.4113 20.4623 66.3615 20.505C66.3189 20.5476 66.2585 20.569 66.1804 20.569H63.89C63.7694 20.569 63.6593 20.5264 63.5598 20.4409C63.4817 20.3699 63.3894 20.313 63.2829 20.2702C63.1764 20.2276 63.0131 20.2064 62.7929 20.2064C62.3171 20.2064 62.0792 20.3058 62.0792 20.505C62.0792 20.6116 62.1715 20.6971 62.3562 20.7611C62.5408 20.8179 62.9101 20.8785 63.464 20.9423Z" fill="white"/>
</g>
<defs>
<clipPath id="clip0_362_1451">
<rect width="103.182" height="30" fill="white" transform="translate(0.572754 0.75)"/>
</clipPath>
</defs>
</svg>
