<svg width="72" height="16" viewBox="0 0 72 16" fill="none" xmlns="http://www.w3.org/2000/svg">
<path d="M20.9561 5.96571C19.814 5.30824 18.672 4.65078 17.53 3.98253C17.4546 3.93942 17.3468 3.93942 17.2714 3.98253C16.1832 4.60766 15.1059 5.23279 14.0177 5.85793C13.8776 5.94415 13.7161 6.00883 13.7161 6.20283V6.83874V9.23149V10.1368C13.7161 10.2231 13.7699 10.3093 13.8453 10.3632C14.8042 10.9237 15.7738 11.4733 16.7327 12.0338C16.8943 12.1308 17.0559 12.2171 17.2176 12.3141C17.3899 12.4111 17.5192 12.3464 17.6701 12.2602C18.1548 11.9799 18.6396 11.6997 19.1137 11.4195C19.4046 11.2577 19.1461 10.8159 18.8551 10.9776C18.3703 11.2578 17.8855 11.538 17.3899 11.8182C16.3341 11.2039 15.2782 10.6003 14.2224 9.98599V6.32139C15.2782 5.70703 16.3341 5.10346 17.3899 4.4891C18.4888 5.12502 19.5877 5.76093 20.6866 6.39684C20.9883 6.56928 21.2469 6.12739 20.9561 5.96571Z" fill="white"/>
<path d="M17.5084 7.88349C17.5192 7.88349 17.5192 7.88349 17.5192 7.88349C17.5623 7.88349 17.6054 7.87271 17.6377 7.85115C18.2302 7.51704 18.8121 7.17213 19.3938 6.838C19.5555 6.741 19.5555 6.49311 19.3938 6.3961C19.0814 6.21288 18.7797 6.04043 18.4673 5.85719C18.2734 5.73864 18.0686 5.63085 17.8747 5.51229C17.767 5.44763 17.627 5.33984 17.4976 5.33984C17.3791 5.33984 17.2499 5.43684 17.1529 5.50152C16.9482 5.62008 16.7327 5.73864 16.528 5.85719C16.2156 6.02964 15.9139 6.21288 15.6015 6.3961C15.4291 6.49311 15.4291 6.741 15.6015 6.838C16.1832 7.17213 16.7758 7.51704 17.3576 7.85115C17.433 7.87271 17.4653 7.88349 17.5084 7.88349ZM17.5192 5.88953C17.9394 6.12665 18.3488 6.36377 18.769 6.61167C18.3488 6.84879 17.9394 7.0859 17.5192 7.3338C17.0991 7.09669 16.6896 6.85957 16.2695 6.61167C16.6896 6.36377 17.0991 6.12665 17.5192 5.88953Z" fill="white"/>
<path d="M15.3214 7.30211C15.2244 7.24822 15.1382 7.259 15.0628 7.30211C14.9874 7.33445 14.9334 7.4099 14.9334 7.52846V8.56316V9.24216C14.9334 9.36074 14.9119 9.52241 14.9658 9.63016C15.0304 9.73799 15.1813 9.79191 15.2782 9.84574C15.4722 9.96432 15.6769 10.0721 15.8708 10.1907C16.1724 10.3631 16.4741 10.5356 16.765 10.708C16.9374 10.805 17.1529 10.6865 17.1529 10.4817V8.50926C17.1529 8.42304 17.099 8.33681 17.0236 8.28292C16.4634 7.97036 15.8924 7.63624 15.3214 7.30211ZM16.6465 10.0506C16.2479 9.82424 15.8492 9.58707 15.4506 9.36074V7.98114C15.8492 8.20748 16.2479 8.4446 16.6465 8.67094V10.0506Z" fill="white"/>
<path d="M19.7816 7.23669C19.1998 7.57081 18.6181 7.90493 18.0362 8.24983C17.9716 8.29295 17.9286 8.34683 17.9177 8.40073C17.907 8.42228 17.907 8.44384 17.907 8.4654V10.4809C17.907 10.6749 18.1225 10.8042 18.2948 10.7072C18.8766 10.3732 19.4584 10.039 20.0401 9.69407C20.1156 9.65098 20.1695 9.56473 20.1695 9.46773V7.45225C20.1695 7.25824 19.954 7.13968 19.7816 7.23669ZM19.6523 9.32765C19.2429 9.56473 18.8335 9.8019 18.4241 10.039V8.61629C18.8335 8.37918 19.2429 8.14206 19.6523 7.90493V9.32765Z" fill="white"/>
<path d="M11.5829 6.5902C11.1304 6.84887 10.6886 7.10755 10.2361 7.36622V6.36385C10.2361 6.27763 10.1931 6.19141 10.1176 6.14829C9.80522 5.96506 9.49272 5.78183 9.1803 5.60938C9.37422 5.5016 9.56814 5.38304 9.76205 5.27526C10.1284 5.49082 10.4947 5.69561 10.8611 5.91117C11.1411 6.07285 11.3889 5.64171 11.1088 5.49082C10.2577 4.99503 9.40655 4.51001 8.55547 4.01422C8.27531 3.85255 8.02752 4.28367 8.30764 4.43456C8.63089 4.6178 8.95405 4.80102 9.26647 4.99503C9.07255 5.10281 8.87864 5.21059 8.68472 5.32915C8.30764 5.11359 7.93055 4.89802 7.56424 4.68246C7.28413 4.52079 7.03634 4.95192 7.31645 5.10281C7.60734 5.27526 7.89824 5.43693 8.19989 5.60938C8.02752 5.70639 7.85514 5.80339 7.68276 5.91117C7.2949 5.68483 6.90704 5.46927 6.51919 5.24293C6.44378 5.19981 6.34681 5.19981 6.27139 5.24293C5.84044 5.49082 5.42027 5.73872 4.98932 5.98662C4.97854 5.9974 4.96777 6.00818 4.94623 6.01895C4.89235 6.06207 4.86004 6.11595 4.86004 6.20218C4.86004 6.65486 4.86004 7.10755 4.86004 7.56023C4.86004 7.64645 4.90313 7.73268 4.97854 7.7758C5.3664 8.00214 5.75425 8.2177 6.13134 8.44404V9.03685C5.82967 8.86435 5.52801 8.69194 5.22634 8.5087C4.94623 8.34703 4.69843 8.77816 4.97854 8.9291C5.3664 9.15543 5.75425 9.37093 6.13134 9.59726V10.3194C5.82967 10.147 5.52801 9.96376 5.22634 9.79135C4.94623 9.6296 4.69843 10.0608 4.97854 10.2117C6.07747 10.8476 7.17639 11.4943 8.28609 12.1086C8.3615 12.1518 8.45847 12.1518 8.53389 12.1086C9.04022 11.796 9.5358 11.4943 10.0422 11.1817C10.2038 11.0847 10.2254 10.9661 10.2254 10.8044V10.0392V7.92669C10.6348 7.68956 11.0441 7.45245 11.4536 7.2261V9.55418C11.3351 9.47876 11.2166 9.4141 11.0981 9.3386C10.8179 9.17693 10.5809 9.6081 10.8502 9.75901C11.0981 9.8991 11.3351 10.0392 11.5829 10.1901C11.7445 10.2871 11.9491 10.1685 11.9491 9.97451V6.80575C11.9491 6.61175 11.7445 6.4932 11.5829 6.5902ZM8.44769 6.92432C8.18912 7.07521 7.91978 7.2261 7.66121 7.377C7.40264 7.2261 7.13329 7.07521 6.87473 6.92432C7.13329 6.77342 7.40264 6.62253 7.66121 6.47164C7.93055 6.62253 8.18912 6.77342 8.44769 6.92432ZM7.41341 7.80813C7.41341 8.0668 7.41341 8.33625 7.41341 8.59493C7.15484 8.44404 6.8855 8.29315 6.62693 8.14225V7.35545C6.8855 7.50634 7.15484 7.65723 7.41341 7.80813ZM6.13134 7.85124C5.87277 7.70035 5.60342 7.54945 5.34485 7.39855C5.34485 7.13988 5.34485 6.87043 5.34485 6.61175C5.60342 6.76265 5.87277 6.91354 6.13134 7.06443V7.85124ZM5.59265 6.1914C5.85122 6.0405 6.12056 5.88961 6.37914 5.73872C6.6377 5.88961 6.90704 6.0405 7.16562 6.1914C6.90704 6.3423 6.6377 6.4932 6.37914 6.64409C6.12056 6.4932 5.86199 6.3423 5.59265 6.1914ZM9.74055 7.64645C9.42814 7.8189 9.12647 8.00214 8.81397 8.17459C8.53389 8.33625 8.78172 8.7566 9.0618 8.59493C9.28805 8.4656 9.5143 8.33625 9.74055 8.20692V10.7721C9.2988 11.0416 8.85714 11.3218 8.41537 11.5913C7.82282 11.2571 7.23026 10.9123 6.6377 10.5781V9.85601C6.93937 10.0284 7.24104 10.2008 7.54269 10.3841C7.82282 10.5458 8.07061 10.1147 7.79049 9.96376C7.40264 9.73743 7.01479 9.52185 6.6377 9.29551V8.70271C6.93937 8.87518 7.24104 9.0476 7.54269 9.23085C7.7043 9.32785 7.909 9.20926 7.909 9.01526C7.909 8.61649 7.909 8.20692 7.909 7.80813C8.29686 7.58179 8.68472 7.36622 9.0618 7.13988C9.22339 7.04288 9.22339 6.80576 9.0618 6.71954C8.76014 6.54709 8.45847 6.37463 8.1568 6.20218C8.32919 6.10518 8.50156 6.00818 8.67397 5.9004C9.02947 6.10518 9.38497 6.30996 9.74055 6.51475V7.64645Z" fill="white"/>
<path d="M26.7306 6.1701V6.15933C27.1616 6.06232 27.377 5.74975 27.377 5.21084C27.377 4.76894 27.2909 4.46715 27.1077 4.30548C26.9245 4.14381 26.5798 4.06836 26.0842 4.06836H23.9402V8.43352H26.2027C26.6768 8.43352 27.0108 8.34729 27.2047 8.16406C27.3986 7.98083 27.4956 7.66827 27.4956 7.22636C27.4848 6.60123 27.2262 6.24555 26.7306 6.1701ZM24.759 4.74738H25.9442C26.3428 4.74738 26.5367 4.91983 26.5367 5.27551C26.5367 5.53419 26.4936 5.70664 26.3966 5.78208C26.3104 5.85753 26.0949 5.88987 25.7718 5.88987H24.759V4.74738ZM26.5044 7.59282C26.4182 7.66826 26.235 7.71138 25.9549 7.71138L25.664 7.72215H24.759V6.49344H25.8149C26.1812 6.49344 26.4074 6.52578 26.5044 6.59045C26.6014 6.65512 26.6444 6.82757 26.6444 7.08624C26.6444 7.34492 26.5906 7.51737 26.5044 7.59282Z" fill="white"/>
<path d="M29.2301 4.05762H28.4114V8.41199H31.2772V7.67908H29.2301V4.05762Z" fill="white"/>
<path d="M35.4789 8.04575C35.7052 7.78707 35.8237 7.15116 35.8237 6.15957C35.8237 5.24343 35.7052 4.66141 35.4789 4.39196C35.2527 4.13328 34.7463 3.99316 33.949 3.99316C33.0548 3.99316 32.4946 4.1225 32.2683 4.39196C32.0421 4.66141 31.9236 5.3081 31.9236 6.35357C31.9236 7.22661 32.0421 7.78707 32.2683 8.04575C32.5053 8.30442 33.0117 8.43376 33.809 8.43376C34.7032 8.44454 35.2527 8.3152 35.4789 8.04575ZM34.8325 7.51762C34.7355 7.65773 34.4231 7.73318 33.9059 7.73318C33.3673 7.73318 33.044 7.66851 32.9363 7.53917C32.8286 7.40984 32.7747 7.0326 32.7747 6.40746C32.7747 5.56677 32.8178 5.07098 32.9148 4.92008C33.0117 4.77996 33.3349 4.70452 33.8844 4.70452C34.4231 4.70452 34.7355 4.76919 34.8325 4.90931C34.9294 5.03864 34.9725 5.46976 34.9725 6.20268C34.9833 6.9356 34.9402 7.36672 34.8325 7.51762Z" fill="white"/>
<path d="M39.2928 7.05409C39.2928 7.3451 39.2282 7.52833 39.1097 7.61456C38.9912 7.70078 38.7217 7.7439 38.3124 7.7439C37.806 7.7439 37.5043 7.66845 37.4182 7.51755C37.3212 7.36666 37.2781 6.87086 37.2781 6.03016C37.2781 5.40503 37.332 5.03857 37.4289 4.90924C37.5367 4.7799 37.8383 4.72602 38.3555 4.72602C38.7433 4.72602 38.9803 4.76912 39.0881 4.84457C39.1958 4.92002 39.2497 5.10325 39.2497 5.39426V5.50204H40.0792V5.40503C40.0792 4.85535 39.9715 4.47812 39.7668 4.29488C39.5622 4.11166 39.142 4.01465 38.5171 4.01465C37.666 4.01465 37.1057 4.13321 36.8364 4.35955C36.567 4.58589 36.4377 5.06013 36.4377 5.78226C36.4377 7.0002 36.5347 7.75467 36.7394 8.0349C36.9333 8.31513 37.4612 8.45525 38.3232 8.45525C39.0773 8.45525 39.5729 8.36902 39.7884 8.1858C40.0147 8.00257 40.1224 7.61456 40.1224 7.01098V6.86008H39.2928V7.05409Z" fill="white"/>
<path d="M42.9021 6.17013L44.6583 4.05762H43.6347L42.1803 5.83601H41.7925V4.05762H40.9629V8.41199H41.7925V6.52582H42.1911L43.7856 8.41199H44.8414L42.9021 6.17013Z" fill="white"/>
<path d="M59.4505 5.33984H58.8364V6.21288H59.3858C59.7306 6.21288 59.806 6.15899 59.8168 6.1482C59.8276 6.13743 59.8814 6.08354 59.8814 5.8033C59.8814 5.46919 59.8276 5.40451 59.8276 5.39374C59.8276 5.39374 59.7737 5.33984 59.4505 5.33984Z" fill="white"/>
<path d="M64.8053 3.58301H46.7377C45.8973 3.58301 45.2185 4.27282 45.2185 5.10273V7.43081C45.2185 8.27151 45.9081 8.95052 46.7377 8.95052H64.8053C65.6456 8.95052 66.3243 8.26072 66.3243 7.43081V5.10273C66.3243 4.26203 65.6456 3.58301 64.8053 3.58301ZM49.7758 5.37218H48.8385V7.96972H47.9982V5.37218H47.1148V4.59616H49.7866V5.37218H49.7758ZM52.7925 7.96972H50.4008V4.59616H52.7818V5.33985H51.2411V5.90032H52.7063V6.57933H51.2411V7.21525H52.8033V7.96972H52.7925ZM57.2528 7.96972H56.4233V6.14821C56.4233 6.11587 56.4233 6.08354 56.4233 6.05121C56.4125 6.08354 56.4017 6.11587 56.3909 6.13743L55.6907 7.9805H54.9903L54.2793 6.15899C54.2685 6.13743 54.2578 6.1051 54.2469 6.07277C54.2469 6.1051 54.2469 6.13743 54.2469 6.15899V7.9805H53.4282V4.60693H54.5809L55.1519 6.13743C55.195 6.24522 55.2489 6.41767 55.3028 6.57933L55.3351 6.67634L55.3674 6.59012C55.4213 6.40688 55.4752 6.25599 55.5183 6.14821L56.0893 4.61772H57.2636V7.96972H57.2528ZM60.4849 6.70867C60.3233 6.87035 60.0109 6.94579 59.5477 6.94579H59.4076H58.8258V7.95894H57.9854V4.58537H59.5261C59.9893 4.58537 60.291 4.6716 60.4634 4.84405C60.6358 5.0165 60.722 5.32907 60.722 5.78176C60.7328 6.24522 60.6573 6.547 60.4849 6.70867ZM64.148 7.66793C63.9541 7.88349 63.5339 7.99127 62.8659 7.99127C62.2518 7.99127 61.864 7.88349 61.6701 7.67871C61.4869 7.47392 61.3899 7.0428 61.3899 6.38533C61.3899 5.58775 61.4762 5.12428 61.6593 4.89794C61.8533 4.6716 62.2734 4.5746 62.9522 4.5746C63.5663 4.5746 63.9541 4.68238 64.1373 4.89794C64.3204 5.11351 64.4173 5.55541 64.4173 6.24522C64.4173 6.98891 64.3312 7.46315 64.148 7.66793Z" fill="white"/>
<path d="M62.9089 5.31836C62.3918 5.31836 62.3164 5.40458 62.3164 5.41537C62.2948 5.4477 62.241 5.59859 62.241 6.40695C62.241 6.98898 62.3055 7.11832 62.3271 7.13987C62.3379 7.15065 62.4349 7.23688 62.9305 7.23688C63.3937 7.23688 63.4799 7.15065 63.4907 7.12909C63.5122 7.09676 63.5769 6.95664 63.5769 6.26684C63.5769 5.55548 63.5122 5.42614 63.4907 5.41537C63.4907 5.41537 63.4261 5.31836 62.9089 5.31836Z" fill="white"/>
<path d="M29.5533 10.2441H29.3378V10.5782H28.5513V12.2596H28.7668V12.1303H30.1781V12.2596H30.3936V10.5782H29.5533V10.2441ZM29.3378 11.9255H28.756V11.419H29.3378V11.9255ZM29.3378 11.2249H28.756V10.7831H29.3378V11.2249ZM30.1674 11.9255H29.5533V11.419H30.1674V11.9255ZM30.1674 10.7831V11.2249H29.5533V10.7831H30.1674Z" fill="white"/>
<path d="M32.4193 11.656L32.5485 11.5051C32.527 11.4836 32.5055 11.4621 32.484 11.4513C32.4085 11.3866 32.3223 11.3111 32.2254 11.2249C32.2145 11.2141 32.193 11.1925 32.1607 11.1818C32.1823 11.1495 32.193 11.1279 32.2145 11.1171C32.2792 11.0309 32.3331 10.9339 32.387 10.8369C32.3977 10.8261 32.4085 10.8045 32.4193 10.7722V10.5782H32.1391L32.0745 10.4165C32.053 10.3519 32.0315 10.298 31.9991 10.2549L31.7944 10.2872L31.8698 10.4381L31.9345 10.5782H31.5574V10.7722H32.193C32.0637 10.977 31.956 11.1279 31.8698 11.2249C31.7836 11.322 31.6759 11.419 31.5466 11.5051L31.622 11.71C31.6435 11.6991 31.6651 11.6776 31.6759 11.6776C31.7405 11.6345 31.8052 11.5698 31.8806 11.516L31.9237 11.4728V12.2704H32.1284V11.3974L32.2792 11.5267C32.3223 11.5591 32.3546 11.6021 32.3977 11.6345L32.4193 11.656Z" fill="white"/>
<path d="M33.1087 10.977H33.5396V10.7722H33.1087V10.2656H32.904V10.7722H32.4838V10.977H32.904V11.9794H32.3438V12.1842H33.5719V11.9794H33.1087V10.977Z" fill="white"/>
<path d="M36.2869 11.3223H36.6102V11.1392H36.2869V10.8805H36.6317V10.6973H35.759V10.8805H36.093V11.1392H35.759V11.3223H36.093V11.5918H35.6943V11.7858H36.093V12.2601H36.2869V11.7858H36.6748V11.5918H36.2869V11.3223Z" fill="white"/>
<path d="M35.9206 10.6645L36.1038 10.5782C36.0714 10.5136 36.0499 10.4596 36.0176 10.395L35.9314 10.2441L35.759 10.3196C35.8237 10.4273 35.8775 10.5459 35.9206 10.6645Z" fill="white"/>
<path d="M36.4701 10.6106C36.4916 10.5782 36.5132 10.5351 36.5348 10.4812L36.6102 10.3196L36.4271 10.2441C36.384 10.3519 36.3301 10.4705 36.2546 10.5782L36.4271 10.6645C36.4486 10.6429 36.4594 10.6214 36.4701 10.6106Z" fill="white"/>
<path d="M35.0911 11.3218C35.1019 11.2894 35.1127 11.2679 35.1127 11.2464C35.1127 11.2356 35.1127 11.2356 35.1234 11.2248H35.6082V10.8476H35.716V10.6751H35.6082V10.2979H34.7572V10.4704H35.0157V10.5674C35.0157 10.5997 35.0157 10.632 35.0049 10.6751H34.6602V10.8476H34.9942L34.9834 10.9446C34.9834 10.9877 34.9726 11.0308 34.9618 11.0631H34.7032V11.2356H34.9187C34.8648 11.3973 34.7787 11.5266 34.6494 11.6452L34.7248 11.8715C34.7787 11.8284 34.8433 11.7637 34.908 11.6667V12.2703H35.1019V12.1409H35.4251V12.2379H35.619V11.4296H35.048L35.0911 11.3218ZM35.1988 10.5781V10.4811H35.4143V10.6859H35.1881L35.1988 10.5781ZM35.1665 10.9661L35.1773 10.8584H35.4143V11.0739H35.1557L35.1665 10.9661ZM35.1127 11.602H35.4359V11.9469H35.1127V11.602Z" fill="white"/>
<path d="M37.7522 10.568H38.6679L38.6249 10.6974C38.6033 10.7513 38.5818 10.8051 38.5602 10.8374H37.9246V12.2602H38.14V11.0314H38.4202V12.1955H38.6356V11.0314H38.9158V12.1955H39.1312V11.0314H39.4221V11.9907C39.4221 12.0339 39.4114 12.0554 39.3898 12.0554H39.3574L39.1851 12.0446L39.2174 12.2386H39.4437C39.5299 12.2386 39.5837 12.2171 39.6053 12.1848C39.6269 12.1524 39.6484 12.0985 39.6484 12.023V10.8374H38.7973C38.8188 10.8051 38.8295 10.762 38.8511 10.7081L38.9049 10.568H39.7777V10.374H37.7522V10.568Z" fill="white"/>
<path d="M42.0293 11.4944H42.7296V11.2896H42.0293V10.8369H42.8373V10.6321H42.0293V10.2441H41.8031V10.6321H41.3613L41.4152 10.4812C41.426 10.4489 41.4367 10.4166 41.4476 10.3626L41.2428 10.2872C41.1781 10.5891 41.0381 10.8477 40.855 11.0632L40.9951 11.2465C41.092 11.1279 41.189 10.9878 41.2751 10.8261H41.8031V11.2788H41.1243V11.4836H41.8031V11.9901H40.8981V12.195H42.8805V11.9901H42.0401V11.4944H42.0293Z" fill="white"/>
<path d="M45.5739 11.6131C45.5524 11.57 45.5416 11.5376 45.5309 11.5161C45.4554 11.3652 45.38 11.2143 45.283 11.0742L45.0999 11.1712C45.1861 11.3006 45.283 11.4838 45.3692 11.7209L45.5739 11.6131Z" fill="white"/>
<path d="M44.4857 10.632C44.5288 10.5565 44.5611 10.4595 44.5827 10.3302L44.3887 10.2764C44.378 10.2979 44.378 10.3195 44.378 10.3302C44.3456 10.4488 44.3025 10.5565 44.2595 10.632H44.0332V12.2272H44.2271V12.0547H44.615V12.2056H44.8089V11.1494V10.632H44.4857ZM44.6042 11.8715H44.2164V11.4189H44.6042V11.8715ZM44.6042 11.2248H44.2164V10.8045H44.6042V11.2248Z" fill="white"/>
<path d="M45.3048 10.3736C45.3048 10.3196 45.3048 10.2873 45.3155 10.2657L45.1108 10.2334C45.0677 10.5891 44.9708 10.8909 44.7983 11.1388L44.9708 11.3005C45.0785 11.128 45.1647 10.9556 45.2185 10.7723H45.7357V10.934C45.7357 11.5052 45.7142 11.8394 45.6818 11.9364C45.6603 11.9795 45.6388 12.0118 45.6172 12.0226C45.5956 12.0334 45.5741 12.0334 45.531 12.0334C45.4987 12.0334 45.4233 12.0334 45.3048 12.0226C45.2939 12.0226 45.2724 12.0226 45.2401 12.0226L45.3048 12.2381C45.3155 12.2381 45.3478 12.2381 45.4125 12.2381C45.6172 12.2381 45.7464 12.2166 45.8003 12.1627C45.8542 12.1196 45.8865 12.0226 45.9081 11.8932C45.9296 11.7531 45.9404 11.5268 45.9404 11.2035C45.9404 10.8801 45.9404 10.6753 45.9512 10.5783H45.2832C45.2939 10.5029 45.3048 10.4274 45.3048 10.3736Z" fill="white"/>
<path d="M47.3194 10.4811H49.0217V10.2871H47.1147V12.2595H47.3194V12.1409H49.0755V11.9362H47.3194V10.4811Z" fill="white"/>
<path d="M48.7199 10.5889H47.6426V11.117H48.7199V10.5889ZM48.5152 10.9445H47.8365V10.7613H48.5152V10.9445Z" fill="white"/>
<path d="M48.9786 11.2354H48.2998V11.8066H48.9893V11.2354H48.9786ZM48.7954 11.6341H48.4722V11.4078H48.7954V11.6341Z" fill="white"/>
<path d="M47.4485 11.8183H48.1488V11.2471H47.4485V11.8183ZM47.6317 11.4196H47.9549V11.6459H47.6317V11.4196Z" fill="white"/>
<path d="M50.8422 11.5161L50.7345 11.5699L50.6268 11.6238V11.031H50.7991V10.837H50.6268V10.2334H50.4328V10.837H50.1851V11.031H50.4328V11.6992C50.4221 11.7101 50.379 11.7208 50.3036 11.7424L50.1743 11.7855L50.1958 12.0118C50.2389 12.0011 50.2712 11.9795 50.3036 11.9795C50.4975 11.9041 50.6807 11.8286 50.8422 11.7424V11.5161Z" fill="white"/>
<path d="M52.146 11.7961C52.1352 11.7746 52.1352 11.7638 52.1244 11.7531C52.0921 11.6776 52.0598 11.6237 52.0383 11.5698L52.0167 11.5375L51.8982 11.5914L51.9305 11.6561L51.9521 11.6991L51.8874 11.71L51.8013 11.7315C51.812 11.7207 51.8228 11.6776 51.8443 11.6021L51.8767 11.4405L51.7258 11.419C51.7258 11.4405 51.715 11.4513 51.715 11.4728C51.7043 11.5375 51.6827 11.6345 51.6396 11.7531H51.5858V11.3651H52.0598V10.4381H51.5211L51.5642 10.3626L51.6073 10.2872L51.4133 10.2441L51.3703 10.3411C51.3595 10.3626 51.3379 10.3842 51.3164 10.4273C51.3164 10.4273 51.3056 10.4381 51.3056 10.4489H50.8531V11.3758H51.1009C51.0793 11.5698 51.0255 11.7315 50.9393 11.8285C50.8531 11.9363 50.7238 12.0225 50.5623 12.098L50.7131 12.2596C50.8747 12.1842 51.0039 12.0764 51.1009 11.9363C51.2087 11.7961 51.2733 11.613 51.2948 11.3651H51.4026V11.9578C51.4026 12.0548 51.4242 12.1196 51.4564 12.1626C51.4888 12.195 51.5534 12.2166 51.6288 12.2166H51.6612H51.8551C51.9521 12.2166 52.0167 12.2057 52.0598 12.1734C52.1028 12.1411 52.1352 12.0656 52.146 11.9578L52.0167 11.8716L52.146 11.7961ZM51.3595 11.2034H51.0471V10.9662H51.3595V11.2034ZM51.3595 10.8046H51.0471V10.5998H51.3595V10.8046ZM51.5427 10.5998H51.8767V10.8046H51.5427V10.5998ZM51.5427 10.9555H51.8767V11.1926H51.5427V10.9555ZM51.9952 11.9794C51.9952 11.9901 51.9952 11.9901 51.9952 11.9901C51.9843 12.0225 51.9628 12.0333 51.9305 12.0333H51.8874H51.6719C51.6181 12.0333 51.5965 12.0117 51.5965 11.9578V11.7638L51.6396 11.904C51.715 11.8931 51.7797 11.8824 51.8335 11.8608L51.9952 11.8177L52.0059 11.8501L51.9952 11.9794Z" fill="white"/>
<path d="M54.6024 11.9901C54.4946 11.9578 54.3976 11.8931 54.3222 11.7854C54.3653 11.6776 54.3869 11.5483 54.4084 11.4081V11.2788H54.2253C54.236 11.2572 54.2468 11.2465 54.2468 11.2249C54.3114 11.1064 54.3545 10.9878 54.3869 10.8477V10.7076H53.999V10.8692H54.2253C54.2144 10.8801 54.2144 10.8908 54.2037 10.9016C54.1606 11.0201 54.1067 11.1279 54.0529 11.2357C54.0421 11.2465 54.0421 11.2572 54.0313 11.2788V11.4297H54.2468C54.2037 11.6668 54.1067 11.8608 53.9882 12.0117V11.8393C53.9451 11.8501 53.902 11.8716 53.8482 11.8824L53.7619 11.904V11.2681H54.0098V11.1171H53.7619V10.9339H53.9451V10.7615H53.4711C53.5465 10.6752 53.6111 10.5782 53.665 10.4921C53.6758 10.4812 53.6865 10.4597 53.6974 10.4381C53.7728 10.5351 53.8374 10.6321 53.902 10.7507L54.0421 10.6106C53.9667 10.492 53.8804 10.3842 53.7835 10.2765C53.7728 10.2656 53.7619 10.2549 53.7512 10.2441H53.6004C53.5357 10.4058 53.428 10.5675 53.2664 10.7076L53.3418 10.9124L53.4064 10.8477V10.9339H53.5789V11.1171H53.2987V11.2896H53.5789V11.9578L53.428 11.9901C53.3526 12.001 53.2987 12.0117 53.2664 12.0117L53.2987 12.195C53.5789 12.1519 53.8051 12.0871 53.9774 12.0225C53.9559 12.0548 53.9236 12.0872 53.902 12.1087L54.0529 12.2381C54.0636 12.2166 54.0744 12.2057 54.0852 12.195C54.1067 12.1626 54.1283 12.1196 54.1606 12.0872C54.1929 12.0548 54.2144 12.0117 54.236 11.9794C54.2468 11.9686 54.2575 11.9471 54.2684 11.9255C54.3653 12.0333 54.473 12.1087 54.5915 12.1519C54.71 12.1842 54.8824 12.2057 55.1194 12.2057C55.1303 12.2057 55.141 12.2057 55.1518 12.2057C55.1841 12.2057 55.2164 12.2057 55.2703 12.2057L55.3026 12.0225C55.2595 12.0333 55.1734 12.0333 55.0656 12.0333C54.8501 12.0333 54.71 12.0225 54.6024 11.9901Z" fill="white"/>
<path d="M53.4927 11.6237C53.482 11.5483 53.4712 11.4728 53.4497 11.4189L53.3096 11.4404C53.3419 11.559 53.3527 11.7099 53.3635 11.8716L53.5251 11.8393L53.4927 11.6237Z" fill="white"/>
<path d="M54.7424 10.2441V10.3842H54.4084V10.5459H54.7424V10.6752H54.4516V11.4728H54.7424V11.613H54.4084V11.7746H54.7424V11.9794H54.9041V11.7746H55.2596V11.613H54.9041V11.4728H55.1949V10.6752H54.9041V10.5459H55.238V10.3842H54.9041V10.2441H54.7424ZM54.7424 11.322H54.6024V11.1279H54.7424V11.322ZM54.7424 10.9878H54.6024V10.8154H54.7424V10.9878ZM55.0441 11.322H54.9041V11.1279H55.0441V11.322ZM55.0441 10.8154V10.9878H54.9041V10.8154H55.0441Z" fill="white"/>
<path d="M53.8482 11.5915L53.8267 11.7747L53.9667 11.7962C53.9775 11.7424 53.9882 11.6777 53.9882 11.5915L53.9991 11.4082L53.8697 11.3975C53.8697 11.4082 53.8697 11.419 53.8697 11.4298C53.859 11.4945 53.859 11.5484 53.8482 11.5915Z" fill="white"/>
<path d="M54.3762 10.5459C54.3654 10.5351 54.3546 10.5244 54.3546 10.5244C54.2792 10.4273 54.1931 10.3411 54.0853 10.2549L53.9561 10.3519C54.0315 10.4273 54.1284 10.5351 54.2361 10.6752L54.3762 10.5459Z" fill="white"/>
<path d="M57.9638 11.5699H58.3624V11.3867H57.8021V11.2573H58.1685V10.5891H58.3624V10.4166H58.1685V10.2334H57.9746V10.4166H57.4359V10.2334H57.2419V10.4166H57.0588V10.5891H57.2419V11.2573H57.6082V11.3867H57.0588V11.5699H57.4359C57.3389 11.7424 57.1881 11.8932 56.9834 12.0226L57.1234 12.1735C57.3173 12.0334 57.479 11.8286 57.5975 11.5591V12.249H57.7914V11.5591C57.9206 11.8286 58.0823 12.0226 58.287 12.1627L58.384 11.9795C58.2116 11.9041 58.0715 11.7531 57.9638 11.5699ZM57.4359 10.5999H57.9746V10.7508H57.4359V10.5999ZM57.4359 11.0849V10.9125H57.9746V11.0849H57.4359Z" fill="white"/>
<path d="M57.1233 11.8285C57.1018 11.807 57.0695 11.7746 57.0264 11.7315L56.9294 11.6345C57.0264 11.3866 57.0802 11.0956 57.091 10.7722V10.6429H56.7786C56.7786 10.6321 56.7786 10.6214 56.7786 10.6106C56.7893 10.5567 56.7893 10.5028 56.7893 10.4596L56.8002 10.2549L56.6062 10.2441C56.6062 10.2872 56.6062 10.3519 56.6062 10.4381L56.5847 10.6429H56.3584V10.8261H56.5631C56.5523 10.8585 56.5523 10.8908 56.5416 10.9124C56.4985 11.1171 56.4554 11.2896 56.4015 11.4405C56.4231 11.4513 56.4338 11.4728 56.4554 11.4836C56.5308 11.5375 56.5954 11.6021 56.6708 11.6668L56.6924 11.6884C56.5846 11.8501 56.4877 11.9686 56.38 12.0441L56.52 12.2057C56.6385 12.098 56.7355 11.9686 56.8325 11.8177L56.9079 11.8931L56.9833 11.9794L57.1233 11.8285ZM56.8971 10.9447C56.8756 11.1711 56.8432 11.3651 56.7786 11.516L56.7139 11.4513L56.6385 11.3974L56.7139 11.1171L56.7678 10.8477H56.9187C56.8971 10.8801 56.8971 10.9124 56.8971 10.9447Z" fill="white"/>
<path d="M60.2802 11.3434H61.4868V11.1817H60.2802V10.8476H60.2155V10.2871H59.5368V10.8476H59.4722V11.2248H59.5907V12.2595H59.763V11.8715H60.0216V12.0116C60.0216 12.0547 60 12.087 59.9678 12.087H59.9569L59.8815 12.0763L59.9246 12.2488H60C60.0754 12.2488 60.1186 12.2272 60.1508 12.1949C60.1832 12.1518 60.194 12.0871 60.194 12.0009V11.2464H60.2909V11.3434H60.2802ZM59.6983 10.4595H60.0539V10.5674H59.7953V10.8476H59.6983V10.4595ZM60.0539 10.7074V10.8476H59.9354V10.7074H60.0539ZM60 11.7314H59.7415V11.5913H60V11.7314ZM60 11.4404H59.7415V11.3003H60V11.4404ZM60.097 11.1386H59.6445V11.0093H60.097V11.1386Z" fill="white"/>
<path d="M61.2065 11.9578L61.2497 11.8608H61.3789V11.4404H60.3985V11.8608H60.5601L60.5924 11.947L60.6248 12.0333H60.28V12.1949H61.4867V12.0333H61.1743L61.2065 11.9578ZM60.5709 11.7207V11.5913H61.1958V11.7207H60.5709ZM61.0557 11.8823C61.0342 11.947 61.0126 12.0009 60.9803 12.044H60.8079L60.7756 11.947L60.7433 11.8608H61.0665C61.0557 11.8716 61.0557 11.8716 61.0557 11.8823Z" fill="white"/>
<path d="M60.6465 10.2441V10.3842H60.334V11.0848H61.4222V10.3842H61.1097V10.2441H60.9589V10.3842H60.7973V10.2441H60.6465ZM60.6465 10.9339H60.4957V10.7938H60.6465V10.9339ZM60.6465 10.6645H60.4957V10.5351H60.6465V10.6645ZM61.1097 10.5351H61.2606V10.6645H61.1097V10.5351ZM61.1097 10.7938H61.2606V10.9339H61.1097V10.7938ZM60.9589 10.9339H60.7973V10.7938H60.9589V10.9339ZM60.9589 10.5351V10.6645H60.7973V10.5351H60.9589Z" fill="white"/>
<path d="M26.5907 11.2686H23.9727V11.4518H26.5907V11.2686Z" fill="white"/>
<path d="M66.0658 11.2686H63.4478V11.4518H66.0658V11.2686Z" fill="white"/>
</svg>
