<svg width="217" height="55" viewBox="0 0 217 55" fill="none" xmlns="http://www.w3.org/2000/svg">
<path d="M204.527 17.3632C211.557 17.3632 216.444 22.1166 216.444 30.6192V52.8465H205.464V33.2972C205.464 28.6777 203.523 26.4014 199.706 26.4014C195.957 26.4014 193.279 28.6777 193.279 33.2972V52.8465H182.3V18.0327H193.279V25.3972H193.681C194.484 21.7149 198.033 17.3632 204.527 17.3632Z" fill="#FF9900"/>
<path d="M172.08 14.6853C168.866 14.6853 166.121 12.1412 166.121 8.92761C166.121 5.71402 168.866 3.10298 172.08 3.10298C175.226 3.10298 177.971 5.71402 177.971 8.92761C177.971 12.0742 175.226 14.6853 172.08 14.6853ZM166.59 52.8466V18.0328H177.569V52.8466H166.59Z" fill="#FF9900"/>
<path d="M145.829 53.516C136.523 53.516 128.154 47.7584 128.154 35.4396C128.154 23.1209 136.523 17.3632 145.829 17.3632C155.001 17.3632 163.503 23.1209 163.503 35.4396C163.503 47.7584 155.001 53.516 145.829 53.516ZM145.829 44.4109C150.314 44.4109 153.193 41.3312 153.193 35.4396C153.193 29.548 150.314 26.4684 145.829 26.4684C141.343 26.4684 138.397 29.548 138.397 35.4396C138.397 41.3312 141.343 44.4109 145.829 44.4109Z" fill="#FF9900"/>
<path d="M110.439 53.516C101.401 53.516 92.7646 48.227 92.7646 35.5066C92.7646 22.6522 101.401 17.3632 110.439 17.3632C114.389 17.3632 118.005 18.4344 121.151 20.5098C124.298 22.6522 126.106 26.4684 126.708 31.9582H117C116.264 28.276 114.055 26.4684 110.372 26.4684C105.351 26.4684 103.008 30.0836 103.008 35.5066C103.008 40.7956 105.351 44.4109 110.372 44.4109C114.055 44.4109 116.264 42.5363 117 38.8541H126.708C126.24 44.277 124.432 48.0931 121.285 50.2355C118.072 52.4448 114.456 53.516 110.439 53.516Z" fill="#FF9900"/>
<path d="M89.0982 44.6117H92.3787V53.1143C90.9727 53.2482 89.0312 53.3152 86.4202 53.3152C78.721 53.3152 74.3023 49.633 74.3023 41.7998V26.4684H68.3438V18.0327H74.3023V8.92754H85.282V18.0327H92.1109V26.4684H85.282V40.26C85.282 43.1388 86.5541 44.6117 89.0982 44.6117Z" fill="#FF9900"/>
<path fill-rule="evenodd" clip-rule="evenodd" d="M54.9774 39.7362C55.7032 38.1168 56.2966 36.411 56.7409 34.6287C58.1584 28.9428 57.8719 23.2311 56.2048 18.0328H65.9572V52.8466H54.9774V39.7362ZM54.5088 8.92761C54.5088 12.1412 57.2537 14.6853 60.4673 14.6853C63.614 14.6853 66.3589 12.0742 66.3589 8.92761C66.3589 5.71402 63.614 3.10298 60.4673 3.10298C57.2537 3.10298 54.5088 5.71402 54.5088 8.92761Z" fill="#FF9900"/>
<path d="M53.7376 33.8796C50.094 48.494 35.2921 57.3881 20.676 53.7437C6.06592 50.1001 -2.8282 35.2973 0.817086 20.6838C4.45896 6.06774 19.2609 -2.82723 33.8727 0.816348C48.4879 4.45992 57.3812 19.2644 53.7376 33.8796Z" fill="#FF9900"/>
<path d="M39.305 23.3939C39.848 19.764 37.0842 17.8126 33.3051 16.5109L34.531 11.5937L31.5378 10.8477L30.3443 15.6353C29.5575 15.4393 28.7493 15.2543 27.9463 15.071L29.1483 10.2518L26.1569 9.50588L24.9301 14.4214C24.2788 14.2731 23.6395 14.1264 23.0188 13.9721L23.0222 13.9568L18.8944 12.9261L18.0982 16.123C18.0982 16.123 20.319 16.6319 20.2721 16.6635C21.4843 16.9661 21.7034 17.7683 21.6668 18.4043L20.2704 24.006C20.3539 24.0273 20.4622 24.058 20.5815 24.1058C20.4818 24.081 20.3752 24.0538 20.2653 24.0273L18.3079 31.8746C18.1596 32.2429 17.7836 32.7953 16.9363 32.5856C16.9661 32.629 14.7607 32.0425 14.7607 32.0425L13.2748 35.4687L17.1698 36.4397C17.8945 36.6213 18.6046 36.8114 19.3036 36.9904L18.065 41.9639L21.0547 42.7098L22.2814 37.7892C23.0981 38.0109 23.8909 38.2155 24.6667 38.4081L23.4442 43.3057L26.4373 44.0517L27.676 39.0876C32.7799 40.0534 36.6179 39.6639 38.2334 35.0476C39.5351 31.3307 38.1686 29.1866 35.4832 27.7886C37.4388 27.3376 38.912 26.0512 39.305 23.3939ZM32.4662 32.9837C31.5413 36.7006 25.2831 34.6912 23.2541 34.1874L24.8977 27.5984C26.9267 28.1048 33.4329 29.1074 32.4662 32.9837ZM33.392 23.3402C32.5481 26.7212 27.3393 25.0034 25.6496 24.5823L27.1398 18.6063C28.8295 19.0274 34.271 19.8134 33.392 23.3402Z" fill="white"/>
</svg>
