<svg width="136" height="48" viewBox="0 0 136 48" fill="none" xmlns="http://www.w3.org/2000/svg">
<path fill-rule="evenodd" clip-rule="evenodd" d="M25.3655 12.7744C28.7867 15.1407 28.8802 20.4217 25.3655 22.7458C21.7814 20.3464 21.6398 14.9327 25.3655 12.7744Z" fill="white"/>
<path fill-rule="evenodd" clip-rule="evenodd" d="M25.3655 0C28.7867 2.36322 28.8802 7.64732 25.3655 9.97136C21.7814 7.57196 21.6398 2.15825 25.3655 0Z" fill="white"/>
<path fill-rule="evenodd" clip-rule="evenodd" d="M34.4295 7.26709C36.5486 10.8481 34.4205 15.6831 30.2547 16.3221C28.006 12.6446 30.1401 7.66799 34.4295 7.26709Z" fill="white"/>
<path fill-rule="evenodd" clip-rule="evenodd" d="M16.5787 7.13477C20.6269 8.0903 22.6345 12.9795 20.208 16.4219C16 15.4935 13.89 10.5048 16.5787 7.13477Z" fill="white"/>
<path fill-rule="evenodd" clip-rule="evenodd" d="M25.2781 34.7492C21.8568 32.383 21.7664 27.1019 25.2781 24.7778C28.8621 27.1772 29.0038 32.5909 25.2781 34.7492Z" fill="white"/>
<path fill-rule="evenodd" clip-rule="evenodd" d="M25.2781 48.0002C21.8568 45.6339 21.7664 40.3528 25.2781 38.0288C28.8621 40.4282 29.0038 45.8419 25.2781 48.0002Z" fill="white"/>
<path fill-rule="evenodd" clip-rule="evenodd" d="M16.214 40.2591C14.0949 36.6781 16.223 31.8431 20.3888 31.2041C22.6375 34.8816 20.5034 39.8582 16.214 40.2591Z" fill="white"/>
<path fill-rule="evenodd" clip-rule="evenodd" d="M34.0648 40.3892C30.0196 39.4336 28.009 34.5444 30.4355 31.1021C34.6435 32.0305 36.7535 37.0192 34.0648 40.3892Z" fill="white"/>
<path fill-rule="evenodd" clip-rule="evenodd" d="M37.4288 23.9211C35.0625 27.3423 29.7814 27.4328 27.4574 23.9211C29.8568 20.3371 35.2705 20.1954 37.4288 23.9211Z" fill="white"/>
<path fill-rule="evenodd" clip-rule="evenodd" d="M50.0256 23.9211C47.6593 27.3423 42.3783 27.4328 40.0542 23.9211C42.4536 20.3371 47.8673 20.1954 50.0256 23.9211Z" fill="white"/>
<path fill-rule="evenodd" clip-rule="evenodd" d="M42.9359 32.9853C39.3549 35.1043 34.5199 32.9762 33.8809 28.8135C37.5584 26.5648 42.535 28.6989 42.9359 32.9853Z" fill="white"/>
<path fill-rule="evenodd" clip-rule="evenodd" d="M43.0655 15.1347C42.11 19.1829 37.2208 21.1904 33.7784 18.7639C34.7068 14.5559 39.6955 12.4459 43.0655 15.1347Z" fill="white"/>
<path fill-rule="evenodd" clip-rule="evenodd" d="M13.1002 23.8343C15.4665 20.4131 20.7476 20.3227 23.0716 23.8343C20.6722 27.4184 15.2585 27.56 13.1002 23.8343Z" fill="white"/>
<path fill-rule="evenodd" clip-rule="evenodd" d="M0 23.8343C2.36322 20.4131 7.64732 20.3227 9.97136 23.8343C7.57196 27.4184 2.15825 27.56 0 23.8343Z" fill="white"/>
<path fill-rule="evenodd" clip-rule="evenodd" d="M7.59004 14.7701C11.171 12.6511 16.006 14.7792 16.645 18.9419C12.9676 21.1906 7.99095 19.0565 7.59004 14.7701Z" fill="white"/>
<path fill-rule="evenodd" clip-rule="evenodd" d="M7.46042 32.6176C8.41596 28.5694 13.3052 26.5619 16.7445 28.9884C15.8161 33.1964 10.8274 35.3064 7.46042 32.6176Z" fill="white"/>
<path d="M67.599 13.3742C67.9909 12.8648 68.2381 12.271 68.3466 11.5958H66.2697C66.1461 12.0479 65.8899 12.4066 65.498 12.6659C65.1062 12.9251 64.6299 13.0547 64.0693 13.0547C63.584 13.0547 63.162 12.9402 62.8032 12.7141C62.4445 12.488 62.1702 12.1625 61.9743 11.7435C61.7784 11.3245 61.6849 10.8302 61.6849 10.2605C61.6849 9.69075 61.7784 9.1753 61.9683 8.75933C62.1582 8.34335 62.4325 8.02383 62.7912 7.80078C63.1499 7.57772 63.5749 7.46619 64.0693 7.46619C64.6209 7.46619 65.0851 7.58977 65.4589 7.83695C65.8326 8.08412 66.0858 8.43981 66.2185 8.901H68.3315C68.2411 8.21675 68.006 7.62293 67.6262 7.12255C67.2463 6.61916 66.758 6.23032 66.1612 5.953C65.5644 5.67568 64.8831 5.54004 64.1145 5.54004C63.2072 5.54004 62.4144 5.73597 61.7301 6.12783C61.0459 6.51969 60.5154 7.0683 60.1356 7.77666C59.7558 8.48502 59.5659 9.31698 59.5659 10.2725C59.5659 11.2281 59.7467 12.0721 60.1084 12.7744C60.4702 13.4797 60.9856 14.0223 61.6518 14.4051C62.3179 14.788 63.1107 14.9809 64.024 14.9809C64.7897 14.9809 65.4769 14.8422 66.0889 14.5619C66.6977 14.2816 67.1981 13.8867 67.59 13.3742H67.599Z" fill="white"/>
<path d="M71.8643 13.0816L73.2268 11.3032L75.2373 14.8329H77.5493L74.532 9.59707L77.5252 5.6875H75.165L71.8643 10.0583V5.6875H69.8628V14.8329H71.8643V13.0816Z" fill="white"/>
<path d="M80.7324 14.8333H82.538C83.1981 14.8333 83.7558 14.7369 84.2139 14.544C84.6721 14.351 85.0188 14.0647 85.2509 13.6849C85.486 13.3051 85.6035 12.8499 85.6035 12.3134C85.6035 11.7437 85.4619 11.2795 85.1755 10.9177C84.9404 10.6163 84.6118 10.4053 84.2019 10.2757C84.5787 10.1159 84.8801 9.88685 85.0971 9.5824C85.3594 9.21164 85.492 8.75949 85.492 8.22294C85.492 7.43922 85.2298 6.82129 84.7083 6.36914C84.1838 5.91699 83.4634 5.69092 82.538 5.69092H78.7309V14.8364H80.7324V14.8333ZM83.2644 12.8258C83.0745 12.9946 82.7942 13.079 82.4234 13.079H80.7294V11.1137H82.4234C82.7851 11.1137 83.0625 11.1951 83.2584 11.3548C83.4513 11.5146 83.5478 11.7527 83.5478 12.0662C83.5478 12.4038 83.4513 12.657 83.2644 12.8258ZM82.327 7.44224C82.6887 7.44224 82.966 7.52362 83.1559 7.68941C83.3458 7.8552 83.4393 8.09634 83.4393 8.41887C83.4393 8.74141 83.3458 9.00064 83.1559 9.17245C82.966 9.34427 82.6917 9.43168 82.327 9.43168H80.7324V7.44224H82.327Z" fill="white"/>
<path d="M65.8869 20.5037V18.6499H60.0783V27.7953H65.8869V25.9415H62.0798V24.0516H65.4528V22.2942H62.0798V20.5037H65.8869Z" fill="white"/>
<path d="M73.0218 25.6244C72.6299 25.8836 72.1536 26.0132 71.593 26.0132C71.1077 26.0132 70.6857 25.8987 70.327 25.6726C69.9683 25.4465 69.694 25.121 69.498 24.702C69.3021 24.283 69.2087 23.7887 69.2087 23.219C69.2087 22.6492 69.3021 22.1338 69.492 21.7178C69.6819 21.3018 69.9562 20.9823 70.3149 20.7593C70.6736 20.5362 71.0986 20.4247 71.593 20.4247C72.1446 20.4247 72.6088 20.5483 72.9826 20.7954C73.3564 21.0426 73.6096 21.3983 73.7422 21.8595H75.8552C75.7648 21.1752 75.5297 20.5814 75.1499 20.0811C74.7701 19.5777 74.2818 19.1888 73.6849 18.9115C73.0881 18.6342 72.4068 18.4985 71.6382 18.4985C70.7309 18.4985 69.9381 18.6945 69.2539 19.0863C68.5696 19.4782 68.0391 20.0268 67.6593 20.7352C67.2795 21.4435 67.0896 22.2755 67.0896 23.231C67.0896 24.1865 67.2705 25.0306 67.6322 25.7329C67.9939 26.4382 68.5093 26.9808 69.1755 27.3636C69.8417 27.7465 70.6344 27.9394 71.5478 27.9394C72.3134 27.9394 73.0007 27.8007 73.6126 27.5204C74.2215 27.2401 74.7218 26.8452 75.1137 26.3327C75.5056 25.8233 75.7527 25.2295 75.8613 24.5543H73.7844C73.6608 25.0064 73.4046 25.3651 73.0127 25.6244H73.0218Z" fill="white"/>
<path d="M83.7045 19.0867C83.0323 18.6858 82.2516 18.4868 81.3624 18.4868C80.4732 18.4868 79.7045 18.6858 79.0323 19.0867C78.3601 19.4876 77.8356 20.0422 77.4558 20.7566C77.076 21.468 76.8861 22.2909 76.8861 23.2223C76.8861 24.1537 77.073 24.9736 77.4498 25.682C77.8236 26.3903 78.3481 26.945 79.0203 27.3429C79.6925 27.7438 80.4671 27.9427 81.3503 27.9427C82.2335 27.9427 83.0233 27.7438 83.6985 27.3429C84.3737 26.942 84.9012 26.3873 85.281 25.6729C85.6608 24.9616 85.8507 24.1387 85.8507 23.2072C85.8507 22.2758 85.6608 21.4559 85.281 20.7476C84.9012 20.0392 84.3767 19.4846 83.7045 19.0867ZM83.4513 24.7053C83.2614 25.1243 82.9931 25.4499 82.6405 25.676C82.2908 25.902 81.8688 26.0166 81.3744 26.0166C80.8801 26.0166 80.4551 25.905 80.1024 25.682C79.7497 25.4589 79.4754 25.1394 79.2855 24.7174C79.0956 24.2954 79.0022 23.795 79.0022 23.2102C79.0022 22.6255 79.0956 22.1251 79.2855 21.7091C79.4754 21.2931 79.7467 20.9736 80.1024 20.7506C80.4581 20.5275 80.8801 20.416 81.3744 20.416C81.8688 20.416 82.2908 20.5275 82.6405 20.7506C82.9901 20.9736 83.2614 21.2931 83.4513 21.7091C83.6412 22.1251 83.7347 22.6255 83.7347 23.2102C83.7347 23.795 83.6382 24.2864 83.4513 24.7053Z" fill="white"/>
<path d="M91.2885 25.9229C91.0233 26.0917 90.6676 26.1761 90.2124 26.1761C89.7572 26.1761 89.4257 26.0857 89.1875 25.9048C88.9494 25.724 88.8288 25.4677 88.8288 25.1392H86.8394C86.8394 25.7089 86.978 26.2032 87.2523 26.6282C87.5297 27.0533 87.9185 27.3788 88.4279 27.6109C88.9343 27.843 89.5251 27.9576 90.2003 27.9576C90.8756 27.9576 91.5116 27.837 92.0361 27.5989C92.5606 27.3607 92.9645 27.0201 93.2538 26.58C93.5432 26.1399 93.6879 25.6275 93.6879 25.0427C93.6879 24.3163 93.489 23.7496 93.0941 23.3426C92.6992 22.9357 92.0933 22.6494 91.2765 22.4836L89.9049 22.2002C89.5824 22.1339 89.3473 22.0284 89.1996 21.8777C89.0519 21.727 88.9765 21.516 88.9765 21.2356C88.9765 20.9312 89.0971 20.6931 89.3413 20.5182C89.5854 20.3464 89.908 20.259 90.3119 20.259C90.6917 20.259 90.9901 20.3524 91.2132 20.5363C91.4362 20.7232 91.5477 20.9764 91.5477 21.2959H93.5372C93.5372 20.7202 93.4076 20.2198 93.1483 19.8008C92.8891 19.3818 92.5214 19.0563 92.0421 18.8242C91.5628 18.5921 90.9961 18.4775 90.336 18.4775C89.6759 18.4775 89.1061 18.5981 88.5997 18.8423C88.0933 19.0864 87.6955 19.418 87.4061 19.843C87.1167 20.268 86.972 20.7564 86.972 21.308C86.972 22.0585 87.18 22.6644 87.596 23.1256C88.012 23.5868 88.6269 23.9003 89.4438 24.0661L90.8394 24.3494C91.1438 24.4067 91.3609 24.5062 91.4875 24.6448C91.6141 24.7835 91.6774 24.9824 91.6774 25.2386C91.6774 25.528 91.5447 25.7571 91.2825 25.9259L91.2885 25.9229Z" fill="white"/>
<path d="M98.5259 21.6039C98.4777 21.7034 98.4325 21.7968 98.3903 21.8812C98.3481 21.9656 98.3119 22.0501 98.2787 22.1284C98.2456 22.2068 98.2094 22.2822 98.1672 22.3575C98.119 22.243 98.0647 22.1254 98.0135 22.0048C97.9592 21.8843 97.8959 21.7546 97.8206 21.616L96.2893 18.6499H94.0527L97.1423 24.3228V27.7953H99.1439V24.3228L102.234 18.6499H100.057L98.5259 21.6039Z" fill="white"/>
<path d="M106.981 22.4806L105.61 22.1973C105.287 22.131 105.052 22.0255 104.904 21.8748C104.756 21.724 104.681 21.513 104.681 21.2327C104.681 20.9283 104.802 20.6901 105.046 20.5153C105.29 20.3435 105.613 20.2561 106.016 20.2561C106.396 20.2561 106.695 20.3495 106.918 20.5334C107.141 20.7203 107.252 20.9735 107.252 21.293H109.242C109.242 20.7173 109.112 20.2169 108.853 19.7979C108.594 19.3789 108.226 19.0534 107.747 18.8213C107.267 18.5892 106.701 18.4746 106.041 18.4746C105.38 18.4746 104.811 18.5952 104.304 18.8393C103.798 19.0835 103.4 19.4151 103.111 19.8401C102.821 20.2651 102.677 20.7534 102.677 21.3051C102.677 22.0556 102.885 22.6615 103.301 23.1227C103.717 23.5839 104.331 23.8974 105.148 24.0631L106.544 24.3465C106.848 24.4038 107.065 24.5032 107.192 24.6419C107.319 24.7806 107.382 24.9795 107.382 25.2357C107.382 25.5251 107.249 25.7542 106.987 25.923C106.722 26.0918 106.366 26.1762 105.911 26.1762C105.456 26.1762 105.124 26.0858 104.886 25.9049C104.648 25.724 104.527 25.4678 104.527 25.1393H102.538C102.538 25.709 102.677 26.2033 102.951 26.6283C103.228 27.0533 103.617 27.3789 104.127 27.611C104.633 27.8431 105.224 27.9576 105.899 27.9576C106.574 27.9576 107.21 27.8371 107.735 27.5989C108.259 27.3608 108.663 27.0202 108.952 26.5801C109.242 26.14 109.386 25.6276 109.386 25.0428C109.386 24.3164 109.188 23.7497 108.793 23.3427C108.398 22.9358 107.792 22.6494 106.975 22.4836L106.981 22.4806Z" fill="white"/>
<path d="M110.252 20.5037H112.844V27.7953H114.848V20.5037H117.444V18.6499H110.252V20.5037Z" fill="white"/>
<path d="M118.683 27.7953H124.491V25.9415H120.684V24.0516H124.057V22.2942H120.684V20.5037H124.491V18.6499H118.683V27.7953Z" fill="white"/>
<path d="M133.697 18.6499L130.966 25.4713L128.247 18.6499H126.306V27.7953H128.247V25.2362C128.247 24.7328 128.241 24.2837 128.229 23.8888C128.217 23.4939 128.181 23.1262 128.123 22.7886L130.053 27.7953H131.882L133.824 22.7886C133.799 22.9604 133.781 23.1292 133.769 23.2889C133.757 23.4487 133.745 23.6386 133.739 23.8526C133.73 24.0666 133.727 24.3349 133.727 24.6574V27.7953H135.668V18.6499H133.703H133.697Z" fill="white"/>
<path d="M60.2622 31.6108H60.0783V40.7563H62.0798V37.1843H65.2931V35.3787H62.0798V33.4646H65.899V31.6108H62.0798H60.2622Z" fill="white"/>
<path d="M72.7264 37.1843C72.7264 37.745 72.5727 38.182 72.2622 38.4955C71.9547 38.809 71.5146 38.9658 70.9449 38.9658C70.3752 38.9658 69.9532 38.8151 69.6488 38.5076C69.3443 38.2031 69.1906 37.7631 69.1906 37.1843V31.6108H67.1891V37.32C67.1891 38.0464 67.3428 38.6764 67.6533 39.216C67.9638 39.7555 68.3978 40.1715 68.9645 40.4639C69.5282 40.7563 70.1913 40.904 70.9479 40.904C71.7045 40.904 72.3828 40.7563 72.9494 40.4579C73.5191 40.1625 73.9562 39.7465 74.2667 39.2099C74.5742 38.6734 74.7309 38.0434 74.7309 37.32V31.6108H72.7294V37.1843H72.7264Z" fill="white"/>
<path d="M82.547 37.4255L78.6917 31.6108H76.7143V40.7563H78.6917V34.9507L82.547 40.7563H84.5244V31.6108H82.547V37.4255Z" fill="white"/>
<path d="M92.3978 32.1926C91.7196 31.8068 90.9299 31.6108 90.0316 31.6108H86.5712V40.7563H90.1552C91.0293 40.7563 91.798 40.5634 92.4611 40.1745C93.1243 39.7857 93.6427 39.2521 94.0195 38.5679C94.3933 37.8836 94.5832 37.0969 94.5832 36.2077C94.5832 35.3184 94.3903 34.5016 94.0015 33.8113C93.6126 33.118 93.0821 32.5784 92.4009 32.1926H92.3978ZM92.1687 37.6545C91.9698 38.0585 91.6834 38.3659 91.3097 38.5829C90.9359 38.797 90.4837 38.9055 89.9562 38.9055H88.5727V33.4677H89.8326C90.3843 33.4677 90.8575 33.5762 91.2464 33.7962C91.6382 34.0132 91.9397 34.3267 92.1477 34.7367C92.3587 35.1436 92.4611 35.638 92.4611 36.2137C92.4611 36.7894 92.3617 37.2567 92.1657 37.6606L92.1687 37.6545Z" fill="white"/>
</svg>
