<svg width="50" height="12" viewBox="0 0 50 12" fill="none" xmlns="http://www.w3.org/2000/svg">
<g clip-path="url(#clip0_362_1602)">
<path fill-rule="evenodd" clip-rule="evenodd" d="M29.9536 1.50234C30.0009 1.61379 30.0706 1.71426 30.1584 1.79748C30.2411 1.88556 30.3413 1.95552 30.4525 2.00295C30.5635 2.05039 30.6832 2.07429 30.8039 2.07315C30.922 2.07356 31.039 2.04908 31.1469 2.0013C31.2551 1.95352 31.3519 1.8835 31.4311 1.79579C31.5169 1.71132 31.5846 1.61047 31.6308 1.4992C31.6768 1.38793 31.7 1.26852 31.6994 1.14805C31.6941 0.9115 31.5981 0.686073 31.4313 0.518766C31.2646 0.35146 31.0399 0.255185 30.8039 0.250013C30.6838 0.249376 30.5648 0.272839 30.454 0.31902C30.3432 0.365201 30.2426 0.433166 30.1584 0.518916C30.0712 0.599182 30.002 0.69672 29.9547 0.805324C29.9073 0.913928 29.883 1.03122 29.8835 1.14974C29.8824 1.27086 29.9062 1.39089 29.9536 1.50234ZM31.5965 3.48871H29.9104L29.9239 11.2311H31.61L31.5965 3.48871ZM2.57315 11.271C3.20112 11.4614 3.85522 11.5504 4.51097 11.5345C5.38652 11.5271 6.2576 11.4083 7.1034 11.1808L6.43934 9.38918C6.18019 9.47895 5.68032 9.58026 5.37194 9.64276L5.37172 9.6428L5.34091 9.64904C5.00901 9.71636 4.68157 9.71766 4.34369 9.71899L4.30947 9.71912C3.78937 9.74073 3.27317 9.62013 2.81593 9.37019C2.41892 9.14704 2.07107 8.75062 2.07107 8.19754V3.97589C2.06196 3.72415 2.15137 3.48115 2.28521 3.21264C2.40996 2.96236 2.5588 2.8116 2.72119 2.64713C2.733 2.63517 2.74492 2.62311 2.75684 2.61097C2.95827 2.42301 3.19548 2.27795 3.45418 2.18453C3.71289 2.09111 3.98774 2.05125 4.26219 2.06737C4.90197 2.08667 5.80027 2.22511 6.38971 2.47567L7.03723 0.949859C6.13362 0.513894 5.14696 0.279077 4.14467 0.261464C3.6145 0.243005 3.08605 0.331842 2.59076 0.522692C2.09547 0.713541 1.64345 1.0025 1.26159 1.37239C0.510091 2.11776 0.143799 3.21207 0.143799 4.63634V7.41603C0.145374 8.50006 0.338367 9.34274 0.72278 9.9441C1.17194 10.5844 1.82442 11.0523 2.57315 11.271ZM10.7576 11.4172C11.717 11.407 12.4234 11.128 12.8972 10.5614C13.3648 9.99767 13.5986 9.28002 13.5986 8.40848V6.36718C13.5986 5.42854 13.3456 4.69117 12.8432 4.15166C12.3408 3.61218 11.6377 3.34326 10.7441 3.34326C9.80842 3.35002 9.09356 3.60541 8.59787 4.13138C8.1022 4.65001 7.85435 5.39979 7.85435 6.38069V8.42369C7.82916 9.20297 8.09152 9.96414 8.59112 10.5614C9.07165 11.1347 9.79832 11.4273 10.7576 11.4172ZM10.7441 5.07C11.0413 5.06032 11.3335 5.14754 11.577 5.3186V5.31015C11.803 5.46914 11.9142 5.82768 11.9311 6.3824V8.58098C11.943 8.74419 11.9189 8.90804 11.8606 9.06088C11.8024 9.21374 11.7113 9.35187 11.5939 9.46548C11.3609 9.66863 11.0593 9.77454 10.7509 9.76145C10.4387 9.77494 10.1317 9.6773 9.8843 9.48578C9.66343 9.29975 9.54708 9.0021 9.54708 8.58774V6.38916C9.54034 5.51311 9.94666 5.07 10.7441 5.07ZM15.1328 1.82622C15.0451 1.74262 14.9754 1.64183 14.9282 1.53012C14.8809 1.41841 14.857 1.29815 14.8579 1.17679C14.8576 1.05876 14.8818 0.941953 14.9292 0.83389C14.9765 0.725828 15.0458 0.628901 15.1328 0.549347C15.2173 0.463469 15.3182 0.395436 15.4294 0.349254C15.5406 0.303072 15.6598 0.279676 15.7802 0.280443C15.8974 0.280181 16.0136 0.303889 16.1214 0.350122C16.2292 0.396355 16.3265 0.464142 16.4074 0.549347C16.4926 0.629883 16.5604 0.72715 16.6065 0.835096C16.6526 0.943041 16.6761 1.05935 16.6754 1.17679C16.6761 1.29749 16.6528 1.41711 16.6067 1.52863C16.5607 1.64015 16.4929 1.74133 16.4074 1.82622C16.3281 1.91342 16.2314 1.98299 16.1237 2.03047C16.016 2.07795 15.8995 2.10228 15.7819 2.10189C15.6608 2.10162 15.5411 2.0771 15.4296 2.02976C15.3181 1.98242 15.2172 1.91322 15.1328 1.82622ZM14.8849 3.51744H16.5709L16.5844 11.2616H14.8984L14.8849 3.51744ZM22.1498 5.37931C22.3928 5.65151 22.5188 6.00887 22.5005 6.37373L22.4989 11.2445H24.1848V5.89681C24.2038 5.40386 24.0822 4.91573 23.834 4.48972C23.6069 4.1182 23.2705 3.82634 22.8713 3.65424C22.4489 3.45954 21.9874 3.3652 21.5226 3.37857C21.0642 3.37851 20.6087 3.45275 20.1738 3.59845L19.9749 3.50881H18.4828L18.4963 11.2529H20.1823V5.28291C20.5 5.11034 20.853 5.0137 21.2141 5.00047C21.3881 4.99169 21.562 5.02104 21.7236 5.08646C21.8851 5.1519 22.0306 5.25181 22.1498 5.37931ZM25.5287 9.19642L25.5117 0.417296H27.2382V3.49532H28.7151L28.3493 5.08506H27.255V9.19813C27.255 9.5499 27.3513 9.78328 27.5518 9.90166C27.8082 10.0343 28.095 10.0961 28.3829 10.081L27.8772 11.4339C26.3127 11.4035 25.5354 10.6661 25.5287 9.19642ZM41.6754 6.51084C41.6754 5.95274 41.5995 5.55192 41.4478 5.30332C41.374 5.18118 41.2682 5.08184 41.1417 5.0162C41.0152 4.95054 40.8733 4.92114 40.7313 4.93125C40.4029 4.95288 40.0802 5.0271 39.7752 5.1511L39.514 5.26272C39.5366 5.33212 39.553 5.40344 39.5629 5.47582C39.5629 5.51811 39.5665 5.55862 39.5698 5.5983C39.5731 5.63631 39.5764 5.67364 39.5764 5.71089V11.2108H37.8903V6.5599C37.8903 6.04237 37.774 5.64832 37.533 5.37604C37.4151 5.2391 37.2678 5.13071 37.1024 5.05895C36.9367 4.98718 36.7571 4.95394 36.5769 4.96168C36.1799 4.97252 35.7929 5.08927 35.4559 5.29994V11.2192H33.7698L33.7563 3.47679H35.2484L35.449 3.58672C35.813 3.42721 36.2067 3.34764 36.6039 3.35334C36.9491 3.35098 37.2919 3.4117 37.6154 3.53261C37.9456 3.64807 38.2429 3.84187 38.4821 4.09746C38.6272 4.01459 38.8395 3.90468 39.1295 3.75922C39.6773 3.49464 40.2753 3.35104 40.883 3.3381C41.2112 3.3255 41.5383 3.37886 41.8457 3.49503C42.1529 3.61123 42.4337 3.78786 42.6719 4.01459C43.1339 4.46559 43.3654 5.08571 43.3666 5.87494V11.2226H41.6805L41.6754 6.51084ZM45.8939 9.27186C45.8525 9.15551 45.8353 9.03189 45.8433 8.90859V8.47732L49.6823 8.27437V5.92695C49.6754 5.12025 49.4394 4.47081 48.9606 4.02264C48.4818 3.57447 47.8175 3.34615 46.9645 3.34615C46.1113 3.34615 45.4301 3.57954 44.9076 4.04294C44.3847 4.50633 44.1302 5.15406 44.1302 5.98954V9.15719C44.1302 9.90978 44.3578 10.4764 44.8047 10.8484C45.2514 11.2205 45.8499 11.4065 46.6138 11.4065C47.0923 11.4055 47.5689 11.3429 48.0316 11.2205C48.479 11.1049 48.906 10.9212 49.2979 10.6759L48.6773 9.20454C47.8867 9.6189 47.2611 9.82691 46.7858 9.82691C46.6586 9.83569 46.531 9.81882 46.4105 9.77728C46.2902 9.73573 46.1792 9.67038 46.0843 9.58508C46.0003 9.49481 45.9355 9.38821 45.8939 9.27186ZM46.9442 4.9951C47.2073 4.98756 47.4643 5.07589 47.6675 5.2437C47.768 5.33026 47.8473 5.43893 47.8991 5.56127C47.9508 5.68359 47.9736 5.81629 47.9659 5.94894V6.76243L45.8399 6.90786V5.98277C45.8439 5.73327 45.9366 5.4934 46.1011 5.30628C46.2699 5.09995 46.5529 4.9951 46.9442 4.9951Z" fill="white"/>
</g>
<defs>
<clipPath id="clip0_362_1602">
<rect width="49.5385" height="11.5" fill="white" transform="translate(0.143799 0.25)"/>
</clipPath>
</defs>
</svg>
