<svg width="116" height="35" viewBox="0 0 116 35" fill="none" xmlns="http://www.w3.org/2000/svg">
<path d="M18.3687 35C28.0337 35 35.8687 27.165 35.8687 17.5C35.8687 7.83502 28.0337 0 18.3687 0C8.70376 0 0.868744 7.83502 0.868744 17.5C0.868744 27.165 8.70376 35 18.3687 35Z" fill="white"/>
<path d="M35.8662 17.415L27.1368 8.68555C27.1368 8.68555 22.4066 8.68555 19.3776 8.68555L23.2584 12.5664L34.6386 23.9466C35.4287 21.9495 35.8687 19.7775 35.8687 17.4999C35.8687 17.4716 35.8662 17.4433 35.8662 17.415Z" fill="black"/>
<path d="M19.3776 8.68812L12.7018 15.3639L16.5827 19.2447L23.2585 12.5664L27.1393 8.68555C24.1077 8.68812 22.4092 8.68812 19.3776 8.68812Z" fill="black"/>
<path d="M9.72684 14.543L13.6077 18.4239L23.3305 28.1466L27.2114 24.2658L17.486 14.543C17.486 14.543 12.7559 14.543 9.72684 14.543Z" fill="black"/>
<path d="M17.486 14.543C14.457 14.543 12.7559 14.543 9.72683 14.543L1.63565 22.6341C2.21212 24.5128 3.09484 26.2525 4.22719 27.8018L13.6077 18.4213L17.486 14.543Z" fill="black"/>
<path d="M108.648 15.7011H108.085V11.1871C108.085 9.7176 107.562 8.80657 106.515 8.454C106.257 8.35878 105.974 8.31245 105.668 8.31245C104.716 8.31245 103.957 8.67789 103.393 9.4062C103.275 9.57091 103.174 9.73562 103.092 9.90032V4.69922H99.8132V5.15731H100.853V14.7823C100.853 15.3356 100.588 15.6341 100.06 15.6805C99.9779 15.6933 99.8956 15.6985 99.8132 15.6985V16.1566H103.957C103.957 15.9044 103.751 15.6985 103.499 15.6985H103.092V11.4702C103.092 10.4356 103.408 9.74848 104.044 9.4062C104.245 9.30069 104.438 9.24664 104.626 9.24664C105.344 9.24664 105.743 9.68672 105.825 10.5694C105.835 10.6647 105.843 10.7702 105.843 10.886V14.7823C105.843 15.2533 105.774 15.5286 105.632 15.611C105.514 15.6702 105.357 15.6985 105.156 15.6985V16.1566H109.106C109.106 15.9069 108.903 15.7011 108.648 15.7011Z" fill="white"/>
<path d="M115.172 14.2392C114.938 15.1914 114.59 15.7139 114.132 15.8091C114.063 15.8219 113.991 15.8271 113.921 15.8271C113.486 15.8271 113.221 15.5208 113.129 14.9109C113.106 14.7694 113.093 14.6227 113.093 14.4708V9.12563H115.419V8.66754H113.093V6.62158L110.854 6.99217V8.66754H109.636V9.12563H110.854V13.5341C110.854 15.2378 111.559 16.172 112.969 16.3367C113.111 16.3469 113.252 16.3547 113.391 16.3547C114.297 16.3547 114.92 16.0613 115.26 15.4719C115.424 15.1786 115.553 14.79 115.648 14.3087L115.172 14.2392Z" fill="white"/>
<path d="M99.7437 8.44378C99.7437 8.44121 99.7437 8.44121 99.7437 8.44378C99.7437 8.01915 99.5224 7.69746 99.1106 7.52246C98.9228 7.4401 98.7169 7.39893 98.493 7.39893C97.8831 7.39893 97.4044 7.7515 97.0647 8.45665C97.0055 8.58532 96.954 8.71657 96.9051 8.84525C96.3415 8.49268 95.6467 8.3151 94.8257 8.3151C93.4617 8.3151 92.4632 8.75003 91.8276 9.61988C91.475 10.1011 91.3 10.6416 91.3 11.2412C91.3 12.0879 91.7117 12.8291 92.5353 13.4622C92.6871 13.5805 92.8467 13.6861 93.0114 13.7787H92.9934C92.2985 13.7684 91.8173 14.0721 91.547 14.6949C91.4518 14.9291 91.4055 15.1658 91.4055 15.4C91.4158 15.9636 91.6345 16.4217 92.0566 16.7743C91.7503 17.1397 91.5985 17.4975 91.5985 17.85C91.5985 18.4857 92.0154 18.9618 92.8492 19.2783C93.4129 19.4894 94.0948 19.5949 94.8952 19.5949C96.8228 19.5949 98.0684 19.1419 98.632 18.2361C98.8095 17.953 98.897 17.6596 98.897 17.3559C98.897 16.1695 98.2511 15.4927 96.9566 15.328C96.8048 15.3048 96.6452 15.2919 96.4805 15.2919L92.8312 15.2225C92.525 15.2122 92.3423 15.0758 92.2856 14.8158C92.2728 14.7798 92.2676 14.7464 92.2676 14.7103C92.2676 14.4401 92.4143 14.2883 92.7077 14.2522C92.754 14.2419 92.8029 14.2342 92.8492 14.2342L94.7356 14.2522C96.0276 14.2522 97.0029 13.8122 97.6617 12.9294C98.0375 12.4122 98.2253 11.8357 98.2253 11.2026C98.2125 10.3456 97.8908 9.64047 97.2551 9.08716C97.4662 8.75775 97.7132 8.5879 97.9963 8.57503C98.1481 8.57503 98.336 8.6754 98.5599 8.87613C98.65 8.94819 98.7349 8.99966 98.8198 9.03569C98.9022 9.07172 98.9897 9.09231 99.0849 9.09231C99.157 9.09231 99.2265 9.07687 99.2908 9.05628C99.35 9.03569 99.4066 9.00996 99.4555 8.9765C99.4735 8.96363 99.489 8.95076 99.5044 8.93532C99.6511 8.81694 99.7437 8.64194 99.7437 8.44378ZM92.4812 17.0419C92.7154 17.1372 92.9625 17.1835 93.2224 17.1835L96.7842 17.2195C97.4662 17.2195 97.8651 17.325 97.9834 17.5361C98.0298 17.6184 98.0529 17.7188 98.0529 17.8372C98.0529 18.3905 97.5073 18.7714 96.4136 18.9824C95.9555 19.0776 95.4485 19.1239 94.8978 19.1239C93.4643 19.1239 92.5996 18.8074 92.3062 18.1717C92.247 18.043 92.2187 17.9118 92.2187 17.7831C92.2187 17.5361 92.3062 17.289 92.4812 17.0419ZM95.9092 12.6978C95.9092 13.3052 95.4176 13.7967 94.8103 13.7967H94.6378C94.0305 13.7967 93.539 13.3052 93.539 12.6978V9.87209C93.539 9.26473 94.0305 8.77319 94.6378 8.77319H94.8103C95.4176 8.77319 95.9092 9.26473 95.9092 9.87209V12.6978Z" fill="white"/>
<path d="M49.9923 15.6831H47.9129V10.9761H51.2971V10.4486H47.9129V6.05813H49.9048C50.9625 6.05813 51.6625 6.61144 52.0022 7.71549C52.0125 7.72835 52.0202 7.73865 52.0202 7.75152L52.4088 9.0563H52.921L52.8515 5.58203H44.0371V6.05813H45.4474V15.6831H44.0371V16.1592H49.9949V15.6831H49.9923Z" fill="white"/>
<path d="M67.078 15.7011H65.8092V11.8923C65.8916 10.6596 66.1901 9.90552 66.7074 9.6353C66.7897 9.59927 67.0728 9.46802 67.3585 9.98787C67.5669 10.3662 67.7985 10.5978 68.0456 10.693C68.164 10.7291 68.2927 10.7445 68.4342 10.7445C68.9052 10.7445 69.2397 10.5206 69.4405 10.0754C69.5099 9.92354 69.546 9.76398 69.546 9.59927C69.546 9.01251 69.2577 8.64192 68.6813 8.49008C68.5397 8.45405 68.393 8.43604 68.2412 8.43604C67.5129 8.43604 66.8721 8.72427 66.3188 9.30074C66.0717 9.58383 65.8838 9.88751 65.7552 10.2169L65.6316 8.57758H62.546V9.03567H63.5677V14.7824C63.5677 15.2996 63.3618 15.593 62.95 15.6651C62.8316 15.6882 62.6978 15.7011 62.5434 15.7011V16.1592H67.5335C67.536 15.907 67.3302 15.7011 67.078 15.7011Z" fill="white"/>
<path d="M77.4081 14.3446L76.986 14.203C76.6566 14.9211 76.1393 15.4075 75.4342 15.6674C75.1511 15.7729 74.8629 15.8269 74.5695 15.8269C73.6301 15.8269 73.0228 15.2273 72.7526 14.028C72.6471 13.5339 72.5879 12.9472 72.5776 12.2652L74.1989 12.3166C76.0904 12.3758 77.1893 12.0747 77.4956 11.4185C77.5651 11.2538 77.6011 11.0711 77.6011 10.8729C77.6011 9.87437 77.089 9.14606 76.0673 8.68797C75.4908 8.44091 74.8397 8.31738 74.1088 8.31738C72.7809 8.31738 71.7463 8.77032 71.0051 9.67621C70.4415 10.3814 70.1584 11.2564 70.1584 12.3038C70.1584 14.0075 70.7993 15.1939 72.0809 15.8655C72.6908 16.1821 73.3857 16.3416 74.1603 16.3416C75.5346 16.3416 76.5228 15.8604 77.1224 14.8953C77.2434 14.7152 77.3386 14.5325 77.4081 14.3446ZM74.1114 8.7729C74.8629 8.79606 75.2463 9.43687 75.2566 10.6953C75.2566 11.2486 75.0919 11.5883 74.7625 11.717C74.5283 11.7994 74.1757 11.8277 73.7048 11.8045L72.5776 11.7505C72.6599 9.80231 73.1695 8.80893 74.1114 8.7729Z" fill="white"/>
<path d="M82.5217 11.5062C82.1923 11.3646 81.9581 11.254 81.8166 11.1716C81.1114 10.819 80.7588 10.3893 80.7588 9.88484C80.7588 9.76646 80.7769 9.65065 80.8103 9.53227C80.9879 9.03815 81.4511 8.79109 82.2026 8.79109C83.3195 8.80396 83.9011 9.3444 83.9475 10.4124H84.5111V8.20947C84.2588 8.20947 84.053 8.41536 84.053 8.66756V8.8091C83.5357 8.47969 82.8177 8.31499 81.9015 8.31499C81.3379 8.31499 80.8258 8.39219 80.3677 8.54403C79.2739 8.89661 78.7283 9.57344 78.7283 10.572C78.7283 11.0532 78.8802 11.4701 79.1864 11.8227C79.4695 12.1521 80.0511 12.5098 80.9313 12.8984C81.2941 13.0503 81.5592 13.1738 81.7239 13.269C82.4754 13.6679 82.8511 14.1672 82.8511 14.7668C82.8511 14.8363 82.846 14.9135 82.8331 14.9959C82.7147 15.5595 82.2618 15.8426 81.4743 15.8426C80.0743 15.8323 79.364 15.1014 79.3408 13.6576H78.7412V16.3367C79.0037 16.3367 79.2173 16.1231 79.2173 15.8606V15.7911C79.9224 16.1565 80.7923 16.3367 81.8269 16.3367C82.3673 16.3367 82.8563 16.2672 83.2912 16.1256C84.3489 15.7731 84.8791 15.0859 84.8791 14.0617C84.8791 13.5084 84.7041 13.0323 84.3515 12.6334C84.0478 12.2937 83.4379 11.9179 82.5217 11.5062Z" fill="white"/>
<path d="M89.7327 15.701H89.115V8.58008H85.8544V9.03817H86.8761V14.7849C86.8761 15.3021 86.6702 15.5955 86.2584 15.6676C86.14 15.6907 86.0062 15.7036 85.8544 15.7036V16.1617H90.1908C90.1908 15.9069 89.9849 15.701 89.7327 15.701Z" fill="white"/>
<path d="M51.7397 20.0196H53.15V26.842L46.9272 19.5435H43.9471V20.0196H45.3573V29.6446H43.9471V30.1207H47.5963C47.5963 29.8582 47.3827 29.6446 47.1202 29.6446H46.0985V22.2946L52.8875 30.2107H53.8937V20.0196H55.304V19.5435H51.7423V20.0196H51.7397Z" fill="white"/>
<path d="M61.8228 22.647C61.2463 22.3999 60.5952 22.2764 59.8643 22.2764C58.5364 22.2764 57.5018 22.7293 56.7607 23.6352C56.1971 24.3403 55.914 25.2153 55.914 26.2628C55.914 27.9664 56.5548 29.1528 57.8364 29.8245C58.4463 30.1411 59.1412 30.3006 59.9158 30.3006C61.2901 30.3006 62.2783 29.8194 62.8779 28.8543C62.9963 28.6767 63.089 28.4966 63.161 28.3087L62.739 28.1672C62.4096 28.8852 61.8923 29.3716 61.1871 29.6315C60.904 29.737 60.6158 29.7911 60.3224 29.7911C59.3831 29.7911 58.7757 29.1914 58.5055 27.9922C58.4 27.4981 58.3408 26.9113 58.3305 26.2293L59.9518 26.2808C61.8434 26.34 62.9423 26.0389 63.2485 25.3826C63.318 25.2179 63.354 25.0352 63.354 24.837C63.3566 23.8334 62.8445 23.105 61.8228 22.647ZM60.518 25.6786C60.2838 25.7609 59.9313 25.7892 59.4603 25.7661L58.3331 25.712C58.4154 23.7613 58.9276 22.7679 59.8669 22.7319C60.6184 22.755 61.0018 23.3959 61.0121 24.6543C61.0121 25.2102 60.8474 25.5499 60.518 25.6786Z" fill="white"/>
<path d="M80.7923 25.4676C80.4629 25.326 80.2287 25.2154 80.0871 25.133C79.382 24.7805 79.0294 24.3507 79.0294 23.8463C79.0294 23.7279 79.0474 23.6121 79.0809 23.4937C79.2585 22.9996 79.7217 22.7525 80.4732 22.7525C81.5901 22.7654 82.1717 23.3058 82.218 24.3738H82.7816V22.1709C82.5294 22.1709 82.3235 22.3768 82.3235 22.629V22.7705C81.8063 22.4411 81.0882 22.2764 80.1721 22.2764C79.6085 22.2764 79.0963 22.3536 78.6382 22.5055C77.5445 22.858 76.9989 23.5349 76.9989 24.5334C76.9989 25.0146 77.1507 25.4316 77.457 25.7841C77.7401 26.1135 78.3217 26.4713 79.2018 26.8599C79.5647 27.0117 79.8298 27.1352 79.9945 27.2305C80.746 27.6294 81.1217 28.1286 81.1217 28.7282C81.1217 28.7977 81.1165 28.8749 81.1037 28.9573C80.9853 29.5209 80.5324 29.804 79.7449 29.804C78.3449 29.7937 77.6346 29.0628 77.6114 27.6191H77.0118V30.2981C77.2743 30.2981 77.4879 30.0845 77.4879 29.822V29.7525C78.193 30.118 79.0629 30.2981 80.0974 30.2981C80.6379 30.2981 81.1268 30.2286 81.5618 30.0871C82.6195 29.7345 83.1496 29.0474 83.1496 28.0231C83.1496 27.4698 82.9746 26.9937 82.6221 26.5948C82.321 26.2551 81.711 25.8794 80.7923 25.4676Z" fill="white"/>
<path d="M75.3802 22.5415H73.7949V22.9996H74.8886L73.2493 28.1467L71.5225 22.9996H72.5802V22.5415H69.1599L69.7596 24.3044L68.5964 28.1312L66.8849 22.9996H67.9427V22.5415H63.8688V22.9996H64.6099L66.6559 28.9239C66.903 29.629 67.15 30.0356 67.3971 30.1411C67.5155 30.1875 67.6622 30.2106 67.8372 30.2106H68.4188L70.0581 25.115L71.3629 28.9239C71.5971 29.593 71.7927 29.9816 71.9445 30.0871C72.0732 30.1694 72.2559 30.2106 72.4901 30.2106H73.0717L75.2747 23.5117C75.3879 23.1875 75.5912 23.0228 75.8589 22.9996L75.8614 22.997C76.1033 22.9842 76.2963 22.786 76.2963 22.5415H75.3802Z" fill="white"/>
<path d="M87.9596 7.55585C88.6802 7.55585 89.2643 6.97168 89.2643 6.25107C89.2643 5.53046 88.6802 4.94629 87.9596 4.94629C87.239 4.94629 86.6548 5.53046 86.6548 6.25107C86.6548 6.97168 87.239 7.55585 87.9596 7.55585Z" fill="white"/>
<path d="M60.2709 9.14362C59.5529 8.59031 58.6908 8.31494 57.6794 8.31494C56.2331 8.31494 55.1239 8.80906 54.3467 9.79472C53.8062 10.4999 53.536 11.3234 53.536 12.2627C53.536 13.5907 53.9941 14.6433 54.9103 15.4179C55.6386 16.0304 56.5084 16.3341 57.5198 16.3341C58.907 16.3341 59.993 15.8348 60.7805 14.8363C61.3673 14.0848 61.6632 13.2149 61.6632 12.2267C61.6632 10.9116 61.2 9.88479 60.2709 9.14362ZM59.2492 14.3859C59.2492 15.2377 58.5595 15.93 57.7051 15.93H57.4941C56.6423 15.93 55.95 15.2403 55.95 14.3859V10.3506C55.95 9.49877 56.6423 8.80649 57.4941 8.80649H57.7051C58.557 8.80649 59.2492 9.49619 59.2492 10.3506V14.3859Z" fill="white"/>
</svg>
