<svg width="43" height="33" viewBox="0 0 43 33" fill="none" xmlns="http://www.w3.org/2000/svg">
<g clip-path="url(#clip0_362_1441)">
<path d="M33.987 1.96397C34.8214 13.2653 27.5568 18.6069 21.0444 19.1765C14.9897 19.7061 9.29051 15.9857 8.79051 10.2696C8.37807 5.5472 11.2968 3.53671 13.59 3.3363C15.9485 3.12955 17.9305 4.75609 18.1025 6.72544C18.2681 8.61883 17.0867 9.48063 16.265 9.55236C15.6152 9.60931 14.7977 9.21482 14.7239 8.36777C14.6606 7.63997 14.937 7.5408 14.8694 6.76761C14.7492 5.39108 13.5488 5.23075 12.8917 5.2877C12.0963 5.35734 10.6533 6.28557 10.8559 8.59775C11.0594 10.9299 13.2957 12.7727 16.227 12.5164C19.3904 12.24 21.5929 9.77703 21.7585 6.32248C21.757 6.13951 21.7955 5.95844 21.8713 5.79191L21.8724 5.7877C21.9065 5.71535 21.9464 5.64586 21.9916 5.57989C22.0591 5.47864 22.1456 5.36682 22.2574 5.24448C22.2585 5.24131 22.2585 5.24131 22.2606 5.24131C22.3418 5.14954 22.4399 5.05037 22.5506 4.94386C23.9325 3.64009 28.9091 0.565285 33.6157 1.53888C33.7152 1.56021 33.8051 1.61312 33.872 1.68974C33.9389 1.76635 33.9793 1.86255 33.987 1.96397Z" fill="white"/>
<path d="M1.81204 26.7643V32.7431C1.81204 32.7513 1.80872 32.7593 1.80292 32.7651C1.79711 32.7709 1.78924 32.7742 1.78095 32.7742H0.507414C0.499225 32.7742 0.491244 32.7709 0.485439 32.7651C0.479635 32.7593 0.476318 32.7513 0.476318 32.7431V26.7643C0.476318 26.7569 0.479324 26.7498 0.484506 26.7445C0.489792 26.7393 0.496945 26.7363 0.504304 26.7363H1.78405C1.79152 26.7363 1.79856 26.7393 1.80385 26.7445C1.80903 26.7498 1.81204 26.7569 1.81204 26.7643Z" fill="white"/>
<path d="M11.7992 24.6045C11.7927 24.6045 11.7863 24.6071 11.7817 24.6118C11.777 24.6164 11.7744 24.6228 11.7744 24.6294V25.7014C11.7744 25.7089 11.7773 25.716 11.7826 25.7212C11.7878 25.7265 11.795 25.7294 11.8023 25.7294H14.3556V32.743C14.3556 32.7513 14.3589 32.7592 14.3647 32.765C14.3705 32.7709 14.3784 32.7741 14.3867 32.7741H15.7129C15.7213 32.7741 15.7291 32.7709 15.7349 32.765C15.7407 32.7592 15.7441 32.7513 15.7441 32.743V25.7294H18.0923C18.1014 25.7294 18.1101 25.7258 18.1165 25.7194C18.1229 25.713 18.1265 25.7043 18.1265 25.6952V24.6294C18.1265 24.6228 18.1238 24.6164 18.1192 24.6118C18.1145 24.6071 18.1082 24.6045 18.1017 24.6045H11.7992Z" fill="white"/>
<path d="M12.2638 32.7394C12.2638 32.7485 12.2603 32.7572 12.2538 32.7636C12.2474 32.77 12.2387 32.7736 12.2297 32.7736H10.9873C10.9781 32.7736 10.9694 32.77 10.963 32.7636C10.9567 32.7572 10.9531 32.7485 10.9531 32.7394V29.2559C10.9518 29.0863 10.9383 28.9171 10.9126 28.7494C10.8257 28.1497 10.602 27.7457 9.80071 27.7457H9.76651C9.52334 27.7546 9.28578 27.8217 9.0738 27.9415C8.79759 28.0868 8.56335 28.3009 8.39358 28.563C8.41853 28.7567 8.43099 28.9518 8.43088 29.1472V32.8171C8.43088 32.8254 8.42755 32.8333 8.42175 32.8391C8.41594 32.8449 8.40809 32.8482 8.39977 32.8482H7.17599C7.1669 32.8482 7.15819 32.8446 7.15185 32.8382C7.14542 32.8318 7.14179 32.8231 7.14179 32.814V29.6133C7.14179 29.0446 7.17599 28.4356 6.89336 28.0969C6.77612 27.97 6.63061 27.8726 6.46869 27.8127C6.30669 27.7528 6.13297 27.7319 5.96146 27.7519C5.72316 27.7625 5.48955 27.8217 5.27497 27.9259C5.12957 27.9867 4.9969 28.0742 4.88362 28.1838C4.74979 28.3108 4.65132 28.4703 4.59785 28.6469V32.7394C4.59785 32.7485 4.59421 32.7572 4.58791 32.7636C4.58148 32.77 4.57278 32.7736 4.56365 32.7736H3.32121C3.31219 32.7736 3.30348 32.77 3.29706 32.7636C3.29063 32.7572 3.28711 32.7485 3.28711 32.7394V26.8041C3.28711 26.7958 3.29032 26.788 3.29612 26.7822C3.30193 26.7763 3.30991 26.773 3.3181 26.773H3.8493C3.95284 26.7727 4.0538 26.8053 4.13755 26.8662C4.22128 26.9271 4.28357 27.0131 4.31522 27.1118C4.34006 27.1988 4.37109 27.2733 4.3835 27.3106C4.90911 26.8537 5.58519 26.6079 6.28143 26.6208C6.54986 26.6021 6.81926 26.6409 7.07153 26.7347C7.32379 26.8285 7.5533 26.975 7.74443 27.1646C7.83384 27.2714 7.91389 27.3858 7.98354 27.5064C8.24895 27.2244 8.57113 27.0019 8.92882 26.8535C9.2864 26.7051 9.67145 26.6343 10.0585 26.6456C10.7169 26.6456 12.2484 26.8694 12.2484 28.9483L12.2638 32.7394Z" fill="white"/>
<path d="M30.4784 32.7897H29.1147C29.1082 32.79 29.1017 32.7888 29.0958 32.7861C29.0899 32.7834 29.0846 32.7793 29.0807 32.7741C28.7949 32.3764 28.1861 31.4255 28.1207 31.354L28.0929 31.3074C27.8785 31.0246 27.3722 30.3752 26.6951 30.2291L26.1826 30.7605V32.7493C26.1826 32.7525 26.1819 32.7558 26.1807 32.7588C26.1794 32.7618 26.1776 32.7645 26.1753 32.7668C26.173 32.7692 26.1702 32.771 26.1672 32.7722C26.1642 32.7735 26.161 32.7741 26.1577 32.7741H24.8904C24.8819 32.7733 24.874 32.7694 24.8683 32.7631C24.8625 32.7567 24.8594 32.7485 24.8594 32.74V24.4988C24.8594 24.4906 24.8626 24.4827 24.8685 24.4769C24.8743 24.4711 24.8822 24.4678 24.8904 24.4678H26.1826C26.1892 24.4678 26.1955 24.4704 26.2002 24.475C26.2048 24.4797 26.2074 24.486 26.2074 24.4926V29.1539L28.6924 26.6057H28.7141H30.1336C30.1739 26.6057 30.1926 26.6057 30.2081 26.6337C30.2237 26.6617 30.2081 26.6865 30.2081 26.7145L27.5928 29.3714C28.1737 29.6809 28.673 30.124 29.0496 30.6641L29.0776 30.7014C29.1645 30.8133 30.1399 32.2054 30.5095 32.7244C30.5181 32.7285 30.5248 32.7359 30.528 32.7449C30.5311 32.754 30.5306 32.7639 30.5266 32.7726C30.5224 32.7812 30.515 32.7879 30.506 32.7911C30.497 32.7943 30.4871 32.7938 30.4784 32.7897Z" fill="white"/>
<path d="M1.94242 25.1291C1.94553 25.2881 1.90127 25.4445 1.81525 25.5783C1.72921 25.7121 1.60535 25.8172 1.45942 25.8804C1.31338 25.9436 1.15199 25.9619 0.995591 25.933C0.839286 25.9041 0.695009 25.8293 0.581204 25.7181C0.467501 25.6069 0.389349 25.4644 0.356804 25.3087C0.324258 25.153 0.33877 24.9911 0.398471 24.8436C0.458173 24.6961 0.56037 24.5698 0.692002 24.4806C0.82374 24.3915 0.978904 24.3435 1.138 24.3428C1.24238 24.3416 1.34603 24.361 1.44304 24.3998C1.53995 24.4387 1.62826 24.4962 1.70299 24.5692C1.77772 24.6423 1.83732 24.7293 1.87836 24.8253C1.91952 24.9214 1.94128 25.0246 1.94242 25.1291Z" fill="white"/>
<path d="M20.7667 26.4814C18.9372 26.4814 17.8035 27.6965 17.8035 29.6542C17.8035 31.6119 18.9372 32.827 20.7667 32.827C22.5962 32.827 23.7486 31.6088 23.7486 29.6511C23.7486 27.6933 22.5962 26.4814 20.7667 26.4814ZM21.9502 31.295C21.7913 31.4413 21.6047 31.5544 21.4014 31.6276C21.1982 31.7006 20.9824 31.7323 20.7667 31.7207C19.3659 31.7207 19.077 30.5585 19.077 29.5889C19.077 28.2372 19.6268 27.5784 20.7667 27.5784C21.9066 27.5784 22.4502 28.2713 22.4502 29.6449C22.4565 30.3938 22.2856 30.95 21.9502 31.2919V31.295Z" fill="white"/>
<path d="M36.2112 30.8996C36.1832 30.8654 36.1241 30.8996 36.0962 30.8996L34.9997 31.0643C34.9811 31.0646 34.963 31.0704 34.9475 31.0809C34.9321 31.0914 34.9199 31.1061 34.9128 31.1233C34.7934 31.3205 34.6277 31.4855 34.4301 31.6041C34.2326 31.7227 34.0091 31.7913 33.779 31.8039C33.4803 31.8461 33.1756 31.8049 32.8989 31.6848C32.6221 31.5647 32.3838 31.3704 32.2105 31.1233C32.0173 30.874 31.8968 30.5761 31.8625 30.2626V30.2408L35.0277 29.8058C35.223 29.783 35.4104 29.715 35.5749 29.6071C35.7393 29.4992 35.8764 29.3544 35.9751 29.1842C36.0668 29.0087 36.1159 28.814 36.1186 28.6159C36.1213 28.4178 36.0775 28.2218 35.9906 28.0438C35.6959 27.4047 35.1664 26.9038 34.5121 26.6454C34.0511 26.4696 33.5532 26.4131 33.0645 26.481C32.5758 26.5489 32.1122 26.739 31.7166 27.0339C31.3544 27.3229 31.0626 27.6904 30.8629 28.1087C30.6634 28.5269 30.5612 28.985 30.5641 29.4484C30.5488 29.7497 30.5655 30.0518 30.6139 30.3496C30.8344 31.6236 31.7631 32.9101 33.3876 32.9101C35.3259 32.9101 36.0683 31.7169 36.205 31.0022C36.2235 30.9804 36.2453 30.9245 36.2112 30.8996ZM32.1731 28.1868C32.32 28.004 32.5027 27.8533 32.71 27.7438C32.9172 27.6342 33.1447 27.5682 33.3784 27.5497C33.5933 27.5075 33.8154 27.5177 34.0257 27.5793C34.236 27.641 34.4283 27.7523 34.5866 27.904C34.7111 28.0211 34.816 28.1575 34.8973 28.3079C34.9207 28.3564 34.9328 28.4095 34.9328 28.4633C34.9328 28.5171 34.9207 28.5702 34.8973 28.6187C34.8761 28.6684 34.8423 28.7118 34.7993 28.7445C34.7563 28.7772 34.7054 28.7981 34.6518 28.8052L31.76 29.2091C31.8046 28.8355 31.9519 28.4816 32.1856 28.1868H32.1731Z" fill="white"/>
<path d="M42.4752 29.0383V32.7393C42.4752 32.7484 42.4717 32.757 42.4655 32.7635C42.4589 32.7699 42.4504 32.7735 42.4411 32.7735H41.1988C41.1906 32.7735 41.1825 32.7702 41.1767 32.7644C41.1709 32.7586 41.1678 32.7507 41.1678 32.7424V29.6629C41.1678 29.6629 41.1678 29.1533 41.1427 28.6902C41.1384 28.5351 41.1032 28.3824 41.039 28.2411C40.9751 28.0997 40.8834 27.9725 40.7701 27.8667C40.6528 27.7739 40.517 27.7067 40.3719 27.6698C40.2269 27.6329 40.0756 27.6269 39.9282 27.6523C39.3408 27.7281 38.8045 28.0247 38.428 28.482V32.7393C38.428 32.7484 38.4244 32.757 38.418 32.7635C38.4115 32.7699 38.4029 32.7735 38.3938 32.7735H37.1514C37.1423 32.7735 37.1337 32.7699 37.1272 32.7635C37.1208 32.757 37.1172 32.7484 37.1172 32.7393V26.6921C37.1172 26.683 37.1208 26.6743 37.1272 26.6679C37.1337 26.6615 37.1423 26.6579 37.1514 26.6579H38.1919C38.2011 26.6579 38.2097 26.6615 38.2161 26.6679C38.2225 26.6743 38.2261 26.683 38.2261 26.6921V27.2825C38.7514 26.8064 39.4279 26.5312 40.1363 26.5056C40.7329 26.4684 42.4752 26.5025 42.4752 29.0383Z" fill="white"/>
</g>
<defs>
<clipPath id="clip0_362_1441">
<rect width="42.3274" height="32.5" fill="white" transform="translate(0.245361 0.5)"/>
</clipPath>
</defs>
</svg>
