<svg width="26" height="21" viewBox="0 0 26 21" fill="none" xmlns="http://www.w3.org/2000/svg">
<path d="M25.0968 14.6087C25.221 14.6087 25.3402 14.6581 25.428 14.7459C25.5159 14.8337 25.5652 14.9529 25.5652 15.0771V18.8244C25.5652 18.9486 25.5159 19.0678 25.428 19.1556C25.3402 19.2434 25.221 19.2928 25.0968 19.2928C24.9726 19.2928 24.8534 19.2434 24.7656 19.1556C24.6778 19.0678 24.6284 18.9486 24.6284 18.8244V16.2079L19.9677 20.8685C19.8794 20.9538 19.7611 21.0011 19.6383 21C19.5154 20.9989 19.398 20.9497 19.3111 20.8628C19.2243 20.776 19.175 20.6585 19.1739 20.5357C19.1729 20.4129 19.2201 20.2945 19.3054 20.2062L23.9661 15.5455H21.3495C21.2253 15.5455 21.1062 15.4962 21.0183 15.4083C20.9305 15.3205 20.8811 15.2013 20.8811 15.0771C20.8811 14.9529 20.9305 14.8337 21.0183 14.7459C21.1062 14.6581 21.2253 14.6087 21.3495 14.6087H25.0968Z" fill="#FF9900"/>
<path fill-rule="evenodd" clip-rule="evenodd" d="M9.45048 2.09904C9.0368 2.09904 8.62716 2.18052 8.24497 2.33883C7.86277 2.49714 7.5155 2.72918 7.22298 3.0217C6.93046 3.31422 6.69842 3.66149 6.54011 4.04368C6.3818 4.42588 6.30032 4.83551 6.30032 5.2492C6.30032 5.66288 6.3818 6.07252 6.54011 6.45471C6.69842 6.83691 6.93046 7.18418 7.22298 7.4767C7.5155 7.76922 7.86277 8.00126 8.24497 8.15957C8.62716 8.31788 9.0368 8.39936 9.45048 8.39936C10.286 8.39936 11.0872 8.06747 11.678 7.4767C12.2688 6.88593 12.6006 6.08467 12.6006 5.2492C12.6006 4.41372 12.2688 3.61247 11.678 3.0217C11.0872 2.43093 10.286 2.09904 9.45048 2.09904ZM4.20021 5.2492C4.20042 4.25582 4.48244 3.28288 5.01352 2.44337C5.5446 1.60387 6.30295 0.932267 7.20049 0.506555C8.09803 0.0808427 9.09792 -0.0815041 10.084 0.0383704C11.0702 0.158245 12.0021 0.555421 12.7715 1.18377C13.5409 1.81212 14.1162 2.64585 14.4307 3.58814C14.7452 4.53043 14.7859 5.5426 14.5481 6.5071C14.3103 7.4716 13.8037 8.34885 13.0873 9.03695C12.3708 9.72506 11.4738 10.1958 10.5005 10.3945V15.7497C10.5005 16.0282 10.3899 16.2953 10.193 16.4922C9.99606 16.6892 9.72897 16.7998 9.45048 16.7998C9.17199 16.7998 8.9049 16.6892 8.70798 16.4922C8.51106 16.2953 8.40043 16.0282 8.40043 15.7497V10.3945C7.21472 10.152 6.14911 9.50756 5.38378 8.57003C4.61845 7.6325 4.20036 6.45944 4.20021 5.2492ZM6.8138 14.8047C6.83468 14.9411 6.82849 15.0802 6.79556 15.2142C6.76264 15.3482 6.70363 15.4744 6.62191 15.5856C6.54018 15.6967 6.43736 15.7907 6.31929 15.8621C6.20123 15.9335 6.07026 15.981 5.93385 16.0017C4.59188 16.2055 3.52608 16.5152 2.82569 16.8575C1.54463 17.4844 3.042 17.9349 3.82324 18.1785C5.21667 18.6143 7.20652 18.8999 9.45048 18.8999C11.6944 18.8999 13.6843 18.6143 15.0777 18.1785C15.8642 17.9328 17.3563 17.4855 16.0753 16.8575C15.3749 16.5152 14.3091 16.2065 12.9671 16.0017C12.8292 15.9828 12.6964 15.9367 12.5765 15.866C12.4566 15.7953 12.352 15.7015 12.2686 15.5899C12.1853 15.4784 12.125 15.3515 12.0912 15.2164C12.0574 15.0814 12.0508 14.941 12.0717 14.8034C12.0927 14.6658 12.1408 14.5337 12.2133 14.4148C12.2857 14.296 12.3811 14.1927 12.4938 14.1111C12.6065 14.0294 12.7344 13.971 12.8699 13.9392C13.0054 13.9074 13.1459 13.9028 13.2832 13.9258C14.7407 14.1463 16.0364 14.5002 16.9993 14.9716C17.9276 15.4263 18.901 16.1918 18.901 17.3248C18.901 18.1764 18.3507 18.7949 17.8152 19.1908C15.5576 20.8582 12.1134 21 9.45048 21C7.05426 21 4.8439 20.6976 3.19741 20.1831C1.88485 19.7735 0 18.965 0 17.3248C0 16.1908 0.973399 15.4263 1.90165 14.9727C2.86455 14.5002 4.16136 14.1474 5.61674 13.9258C5.75312 13.9049 5.89229 13.9111 6.02628 13.944C6.16027 13.977 6.28646 14.036 6.39763 14.1177C6.5088 14.1994 6.60278 14.3022 6.67418 14.4203C6.74559 14.5384 6.79304 14.6683 6.8138 14.8047Z" fill="white"/>
</svg>
