<svg width="60" height="39" viewBox="0 0 60 39" fill="none" xmlns="http://www.w3.org/2000/svg">
<g clip-path="url(#clip0_4_3)">
<path d="M18.9912 0V22.6726H24.9196V10.3185H29.4642L18.9912 0Z" fill="white"/>
<path d="M36.2267 0V12.3542H31.6822L42.1552 22.6726V0H36.2267Z" fill="white"/>
<path d="M7.20687 29.7032V35.0036L0 29.7032V38.7723H1.97312V33.472L9.17988 38.7723V29.7032H7.20687Z" fill="white"/>
<path d="M10.9972 38.7723V29.7032H18.9912V31.3674H13.0601V33.2723H18.9912V34.9365H13.0601V37.1081H18.9912V38.7723H10.9972Z" fill="white"/>
<path d="M33.3653 38.7723L29.4074 29.7032H31.7145L34.5895 36.7645L37.478 29.7032H39.7072L35.7491 38.7723H33.3653Z" fill="white"/>
<path d="M57.7695 32.2562C57.6197 31.8598 57.3318 31.5287 56.9573 31.3219C56.5954 31.132 56.0926 31.037 55.449 31.037C54.7174 31.037 54.1588 31.1259 53.7731 31.3037C53.3862 31.4806 53.192 31.7396 53.192 32.0779C53.1822 32.2169 53.2099 32.3559 53.2723 32.4809C53.3347 32.6059 53.4296 32.7124 53.5473 32.7896C53.7837 32.9419 54.2156 33.0646 54.8429 33.1578L56.7379 33.4506C57.8631 33.6276 58.6882 33.9386 59.213 34.3836C59.7372 34.8286 59.9996 35.4406 60 36.2195C60 37.1004 59.6197 37.7839 58.859 38.2701C58.0984 38.7567 57.0132 39 55.6035 39C54.5801 39 53.7314 38.8816 53.0574 38.6447C52.3825 38.408 51.8665 38.0481 51.5094 37.5649C51.1529 37.0821 50.9403 36.4683 50.8717 35.7237H52.9477C53.0336 36.3171 53.2871 36.7513 53.7083 37.0262C54.1296 37.3007 54.7614 37.4382 55.6037 37.4387C56.359 37.4387 56.9296 37.3384 57.3112 37.1395C57.6942 36.9416 57.8857 36.6462 57.8857 36.2572C57.8908 36.1127 57.8586 35.9693 57.7921 35.8405C57.7255 35.7117 57.6268 35.6016 57.5052 35.5207C57.2518 35.3426 56.8489 35.215 56.2996 35.1395L54.7517 34.9236C53.4971 34.7544 52.5797 34.4474 51.9995 34.0023C51.4198 33.5585 51.1297 32.9339 51.1292 32.1287C51.1204 31.6125 51.3042 31.1111 51.6456 30.7196C51.9889 30.3213 52.4895 30.0142 53.1472 29.7982C53.9091 29.5674 54.7036 29.458 55.5005 29.4744C56.7552 29.4744 57.7264 29.6799 58.4139 30.091C59.1008 30.501 59.552 31.1464 59.7676 32.0272L57.7695 32.2562Z" fill="white"/>
<path d="M50.1374 34.2378C50.1374 35.1942 49.9247 36.0304 49.4995 36.7464C49.0663 37.4692 48.4245 38.0486 47.6559 38.4107C46.8529 38.8034 45.8967 38.9998 44.7874 38.9999C43.7215 38.9999 42.7913 38.8117 41.9968 38.4352C41.2273 38.0817 40.5813 37.5118 40.14 36.7971C39.6974 36.0814 39.476 35.2283 39.4756 34.2378C39.4756 33.2801 39.6887 32.4439 40.1149 31.7292C40.548 31.0063 41.1898 30.4269 41.9584 30.0649C42.7616 29.6708 43.7178 29.4739 44.827 29.4743C45.8914 29.4743 46.8216 29.663 47.6176 30.0402C48.3868 30.3941 49.0328 30.964 49.4744 31.6784C49.9168 32.3942 50.1378 33.2473 50.1374 34.2378ZM47.9978 34.2378C47.9978 33.2553 47.7183 32.4933 47.1593 31.9516C46.6006 31.4089 45.8143 31.1379 44.8006 31.1385C43.7955 31.1385 43.0132 31.4117 42.4537 31.9581C41.8951 32.5034 41.6161 33.2633 41.6166 34.2378C41.6166 35.2202 41.8956 35.9823 42.4537 36.524C43.0124 37.0652 43.7991 37.3362 44.8137 37.337C45.8188 37.337 46.6007 37.0638 47.1593 36.5173C47.7179 35.9709 47.9974 35.211 47.9978 34.2378Z" fill="white"/>
<path d="M27.3498 38.7723L25.3385 35.3803H22.6442V38.7723H20.6592V29.7033H25.1839C27.754 29.7033 29.039 30.6475 29.0389 32.5359C29.0389 33.1448 28.895 33.6527 28.6071 34.0596C28.3192 34.4668 27.8785 34.7843 27.285 35.0121L29.6055 38.7723H27.3498ZM25.0293 33.8187C25.7082 33.8187 26.2087 33.7147 26.531 33.5065C26.8532 33.2996 27.0143 32.9717 27.0143 32.5228C27.0143 32.074 26.862 31.7522 26.5574 31.5574C26.2523 31.3622 25.7517 31.2651 25.0558 31.266H22.6442V33.8187H25.0293Z" fill="white"/>
</g>
<defs>
<clipPath id="clip0_4_3">
<rect width="60" height="39" fill="white"/>
</clipPath>
</defs>
</svg>
