<svg width="14" height="14" viewBox="0 0 14 14" fill="none" xmlns="http://www.w3.org/2000/svg">
<path d="M12.6447 0.177734C12.9099 0.177734 13.1643 0.283091 13.3518 0.470628C13.5394 0.658164 13.6447 0.912518 13.6447 1.17773V9.17773C13.6447 9.44295 13.5394 9.6973 13.3518 9.88484C13.1643 10.0724 12.9099 10.1777 12.6447 10.1777C12.3795 10.1777 12.1251 10.0724 11.9376 9.88484C11.7501 9.6973 11.6447 9.44295 11.6447 9.17773V3.59173L1.69471 13.5417C1.50611 13.7239 1.25351 13.8247 0.99131 13.8224C0.729113 13.8201 0.478301 13.715 0.292893 13.5296C0.107485 13.3441 0.00231622 13.0933 3.78026e-05 12.8311C-0.00224062 12.5689 0.0985537 12.3163 0.280712 12.1277L10.2307 2.17773H4.64471C4.3795 2.17773 4.12514 2.07238 3.93761 1.88484C3.75007 1.6973 3.64471 1.44295 3.64471 1.17773C3.64471 0.912518 3.75007 0.658164 3.93761 0.470628C4.12514 0.283091 4.3795 0.177734 4.64471 0.177734H12.6447Z" fill="#FF9900"/>
</svg>
