<svg width="135" height="19" viewBox="0 0 135 19" fill="none" xmlns="http://www.w3.org/2000/svg">
<mask id="mask0_158_2588" style="mask-type:luminance" maskUnits="userSpaceOnUse" x="0" y="0" width="136" height="19">
<path d="M135.004 0.75H0.692505V18.25H135.004V0.75Z" fill="white"/>
</mask>
<g mask="url(#mask0_158_2588)">
<path d="M54.8004 1.39941H43.6572V4.25532H47.7237V16.5483H50.7105V4.25532H54.8004V1.39941Z" fill="white"/>
<path d="M59.5166 5.42383C56.1185 5.42383 53.8048 7.91047 53.8048 11.1356C53.8048 14.3608 56.0998 16.8474 59.7363 16.8474C61.8163 16.8474 63.4382 16.0014 64.4525 14.5337L62.1996 13.2343C61.7228 13.8607 60.8581 14.3187 59.7737 14.3187C58.3013 14.3187 57.1141 13.7111 56.7215 12.2855H64.8825C64.948 11.9162 64.99 11.5516 64.99 11.1403C64.99 7.95722 62.7184 5.4285 59.5166 5.4285V5.42383ZM56.6794 10.1213C57.0019 8.7378 58.0209 7.93385 59.5166 7.93385C60.6852 7.93385 61.8537 8.56018 62.1996 10.1213H56.6794Z" fill="white"/>
<path d="M71.9826 14.0803C70.3186 14.0803 69.0847 12.8464 69.0847 11.1356C69.0847 9.4249 70.3186 8.17222 71.9826 8.17222C73.0857 8.17222 74.0159 8.73312 74.4506 9.62121L76.8531 8.21429C75.965 6.54562 74.1281 5.42383 72.006 5.42383C68.7154 5.42383 66.2942 7.91047 66.2942 11.1356C66.2942 14.3608 68.7201 16.8474 72.006 16.8474C74.1281 16.8474 75.965 15.721 76.8951 14.0336L74.4693 12.6501C74.0346 13.5381 73.1044 14.0803 71.9826 14.0803Z" fill="white"/>
<path d="M84.3831 5.42385C82.9341 5.42385 81.8076 5.96605 81.1579 6.93828V1.39941H78.3674V16.5483H81.1579V10.7056C81.1579 8.82196 82.1769 8.02268 83.537 8.02268C84.7944 8.02268 85.6778 8.77989 85.6778 10.2522V16.5483H88.4683V9.90636C88.4683 7.02708 86.6734 5.42853 84.3784 5.42853L84.3831 5.42385Z" fill="white"/>
<path d="M90.983 16.5483H93.9698V10.7056H99.8592V7.84974H93.9698V4.25532H100.032V1.39941H90.983V16.5483Z" fill="white"/>
<path d="M104.875 0.75H102.084V16.5486H104.875V0.75Z" fill="white"/>
<path d="M112.582 5.42383C109.399 5.42383 106.87 7.91047 106.87 11.1356C106.87 14.3608 109.404 16.8474 112.582 16.8474C115.761 16.8474 118.317 14.3608 118.317 11.1356C118.317 7.91047 115.765 5.42383 112.582 5.42383ZM112.582 14.1224C110.937 14.1224 109.661 12.8884 109.661 11.1356C109.661 9.38283 110.937 8.14886 112.582 8.14886C114.227 8.14886 115.527 9.38283 115.527 11.1356C115.527 12.8884 114.251 14.1224 112.582 14.1224Z" fill="white"/>
<path d="M130.199 12.3934L128.231 5.72803H125.59L123.618 12.37L121.781 5.72803H118.813L122.258 16.5487H124.917L126.908 9.99085L128.9 16.5487H131.564L135.004 5.72803H132.041L130.199 12.3934Z" fill="white"/>
<path d="M32.7291 9.66356C29.761 4.53134 24.2175 1.07715 17.8606 1.07715C8.38148 1.07715 0.692505 8.76612 0.692505 18.25H17.8606C24.2128 18.25 29.7563 14.7958 32.7291 9.66356Z" fill="url(#paint0_linear_158_2588)"/>
<path d="M17.87 1.07715C24.2222 1.07715 29.7657 4.53134 32.7385 9.66356C34.2015 7.13952 35.0428 4.20883 35.0428 1.07715H17.8747H17.87Z" fill="white"/>
</g>
<defs>
<linearGradient id="paint0_linear_158_2588" x1="1.26742" y1="19.2456" x2="29.0132" y2="3.22726" gradientUnits="userSpaceOnUse">
<stop stop-color="white"/>
<stop offset="0.09" stop-color="white" stop-opacity="0.96"/>
<stop offset="0.25" stop-color="white" stop-opacity="0.86"/>
<stop offset="0.45" stop-color="white" stop-opacity="0.69"/>
<stop offset="0.69" stop-color="white" stop-opacity="0.45"/>
<stop offset="0.95" stop-color="white" stop-opacity="0.16"/>
<stop offset="1" stop-color="white" stop-opacity="0.1"/>
</linearGradient>
</defs>
</svg>
