<svg width="22" height="18" viewBox="0 0 22 18" fill="none" xmlns="http://www.w3.org/2000/svg">
<path fill-rule="evenodd" clip-rule="evenodd" d="M21.979 1.82822C22.0248 1.55074 21.9952 1.26608 21.8936 1.00389C21.7919 0.741696 21.6217 0.511573 21.4009 0.337493C21.18 0.163414 20.9165 0.0517488 20.6378 0.0141321C20.3591 -0.0234846 20.0754 0.0143236 19.8163 0.123618L1.88969 7.67167C0.64007 8.19793 0.576121 10.0053 1.88969 10.5504C3.19039 11.0929 4.51004 11.5887 5.84613 12.037C7.07059 12.4416 8.40617 12.8159 9.47653 12.9218C9.76902 13.2719 10.137 13.6095 10.5123 13.9177C11.0857 14.3894 11.7755 14.8748 12.4884 15.3403C13.9162 16.2733 15.5003 17.1654 16.5675 17.7462C17.8433 18.4381 19.3708 17.6414 19.5993 16.2502L21.979 1.82822ZM3.89936 9.10055L19.7545 2.42472L17.5341 15.8854C16.4868 15.3162 14.9782 14.4639 13.6342 13.5854C13.0148 13.1877 12.4168 12.7576 11.8426 12.2969C11.6892 12.1716 11.5402 12.0408 11.396 11.9049L15.5485 7.75344C15.7452 7.55686 15.8558 7.2902 15.8559 7.01211C15.856 6.73401 15.7456 6.46727 15.549 6.27056C15.3525 6.07385 15.0858 5.96328 14.8077 5.96318C14.5296 5.96309 14.2629 6.07346 14.0662 6.27004L9.51951 10.8167C8.75003 10.7181 7.67863 10.433 6.50239 10.0451C5.6267 9.75339 4.75906 9.43808 3.90041 9.0995L3.89936 9.10055Z" fill="white"/>
</svg>
